<svg width="184" height="135" viewBox="0 0 184 135" fill="none" xmlns="http://www.w3.org/2000/svg">
<g clip-path="url(#clip0_366_6420)">
<path d="M182.981 8.00419H1.01922C0.749 8.0039 0.489928 7.89682 0.29885 7.70645C0.107772 7.51607 0.000295357 7.25795 0 6.98873V1.01547C0.000295357 0.746237 0.107772 0.488119 0.29885 0.297745C0.489928 0.107372 0.749 0.000293663 1.01922 0H182.981C183.251 0.000294269 183.51 0.107376 183.701 0.297749C183.892 0.488122 184 0.746237 184 1.01547V6.98874C184 7.25796 183.892 7.51608 183.701 7.70645C183.51 7.89682 183.251 8.0039 182.981 8.00419Z" fill="#E4E4E4"/>
<path d="M5.91482 5.15247C6.714 5.15247 7.36186 4.50699 7.36186 3.71075C7.36186 2.91452 6.714 2.26904 5.91482 2.26904C5.11564 2.26904 4.46777 2.91452 4.46777 3.71075C4.46777 4.50699 5.11564 5.15247 5.91482 5.15247Z" fill="white"/>
<path d="M11.408 5.15247C12.2072 5.15247 12.855 4.50699 12.855 3.71075C12.855 2.91452 12.2072 2.26904 11.408 2.26904C10.6088 2.26904 9.96094 2.91452 9.96094 3.71075C9.96094 4.50699 10.6088 5.15247 11.408 5.15247Z" fill="white"/>
<path d="M16.9002 5.15247C17.6993 5.15247 18.3472 4.50699 18.3472 3.71075C18.3472 2.91452 17.6993 2.26904 16.9002 2.26904C16.101 2.26904 15.4531 2.91452 15.4531 3.71075C15.4531 4.50699 16.101 5.15247 16.9002 5.15247Z" fill="white"/>
<path d="M177.599 2.71847H171.274C171.15 2.71819 171.031 2.66889 170.943 2.58139C170.856 2.49388 170.807 2.37531 170.807 2.25169C170.807 2.12807 170.856 2.0095 170.943 1.92199C171.031 1.83449 171.15 1.78519 171.274 1.78491H177.599C177.723 1.78482 177.842 1.83384 177.93 1.9212C178.018 2.00856 178.068 2.12711 178.068 2.25081C178.068 2.37452 178.019 2.49325 177.931 2.58094C177.844 2.66863 177.725 2.71809 177.601 2.71847H177.599Z" fill="white"/>
<path d="M177.599 4.46883H171.274C171.15 4.46856 171.031 4.41926 170.943 4.33175C170.856 4.24424 170.807 4.12568 170.807 4.00206C170.807 3.87844 170.856 3.75987 170.943 3.67236C171.031 3.58485 171.15 3.53555 171.274 3.53528H177.599C177.723 3.53519 177.842 3.58421 177.93 3.67157C178.018 3.75892 178.068 3.87748 178.068 4.00118C178.068 4.12488 178.019 4.24362 177.931 4.33131C177.844 4.41899 177.725 4.46846 177.601 4.46883H177.599Z" fill="white"/>
<path d="M177.599 6.21932H171.274C171.15 6.21932 171.031 6.17014 170.943 6.08261C170.855 5.99507 170.806 5.87634 170.806 5.75255C170.806 5.62875 170.855 5.51002 170.943 5.42248C171.031 5.33495 171.15 5.28577 171.274 5.28577H177.599C177.723 5.28553 177.843 5.33449 177.931 5.42186C178.019 5.50924 178.068 5.62787 178.068 5.75167C178.069 5.87547 178.019 5.99428 177.932 6.08199C177.844 6.16969 177.725 6.21909 177.601 6.21932H177.599Z" fill="white"/>
<path d="M51.8844 118.698C52.5539 113.334 55.8907 108.049 61.0254 106.303C59.0004 111.824 59.0008 117.881 61.0266 123.402C61.8156 125.529 62.9154 127.812 62.1733 129.955C61.7115 131.288 60.5818 132.309 59.3191 132.947C58.0563 133.584 56.6549 133.888 55.271 134.186L54.9986 134.411C52.8017 129.468 51.2148 124.062 51.8844 118.698Z" fill="#F0F0F0"/>
<path d="M61.0761 106.405C58.0859 109.743 56.2274 113.935 55.7646 118.385C55.6479 119.341 55.6832 120.31 55.8692 121.255C56.0803 122.17 56.5335 123.012 57.1817 123.694C57.7733 124.342 58.4537 124.936 58.8769 125.715C59.0877 126.117 59.2107 126.56 59.2379 127.012C59.2651 127.465 59.1959 127.919 59.0348 128.343C58.6611 129.411 57.9246 130.282 57.1746 131.108C56.3419 132.025 55.4624 132.965 55.1084 134.181C55.0655 134.329 54.8385 134.254 54.8813 134.107C55.4972 131.991 57.5589 130.789 58.5422 128.883C59.0009 127.993 59.1935 126.961 58.7634 126.022C58.3873 125.201 57.6862 124.588 57.0815 123.937C56.4394 123.282 55.9682 122.479 55.709 121.601C55.4753 120.668 55.4026 119.702 55.494 118.745C55.6653 116.587 56.1762 114.469 57.0079 112.469C57.9444 110.181 59.2668 108.069 60.9179 106.226C61.0202 106.112 61.1777 106.291 61.0761 106.405Z" fill="white"/>
<path d="M55.8292 116.943C55.0903 116.765 54.4392 116.33 53.9922 115.717C53.5453 115.104 53.3315 114.353 53.3891 113.598C53.3917 113.567 53.4063 113.538 53.4296 113.518C53.453 113.498 53.4833 113.487 53.5143 113.489C53.5453 113.49 53.5744 113.504 53.5956 113.526C53.6168 113.549 53.6284 113.579 53.628 113.61C53.573 114.313 53.7722 115.013 54.1896 115.582C54.607 116.152 55.2151 116.555 55.9042 116.717C56.0539 116.752 55.978 116.978 55.8292 116.943Z" fill="white"/>
<path d="M56.8386 123.405C58.1731 122.611 59.1583 121.345 59.5976 119.86C59.6411 119.713 59.8681 119.787 59.8247 119.934C59.3646 121.479 58.3367 122.795 56.9461 123.618C56.8135 123.696 56.7067 123.483 56.8386 123.405Z" fill="white"/>
<path d="M58.1658 110.407C58.4373 110.535 58.7365 110.594 59.0366 110.579C59.3368 110.564 59.6284 110.475 59.8854 110.32C60.0169 110.24 60.1236 110.453 59.9929 110.532C59.7082 110.703 59.386 110.801 59.0544 110.818C58.7229 110.836 58.392 110.772 58.0909 110.633C58.0614 110.622 58.0371 110.6 58.023 110.573C58.0088 110.545 58.0059 110.512 58.0148 110.482C58.0249 110.452 58.0464 110.428 58.0747 110.413C58.103 110.399 58.1357 110.397 58.1658 110.407Z" fill="white"/>
<path d="M76.6768 115.884C76.5961 115.936 76.5154 115.989 76.4346 116.043C75.3532 116.751 74.3314 117.546 73.3792 118.42C73.3045 118.486 73.2298 118.554 73.1572 118.623C70.8856 120.751 69.0305 123.281 67.686 126.084C67.152 127.2 66.7041 128.355 66.3459 129.539C65.8515 131.174 65.4459 132.985 64.467 134.322C64.3665 134.463 64.2573 134.597 64.1401 134.724H55.2945C55.2744 134.714 55.2542 134.706 55.234 134.696L54.8809 134.712C54.895 134.65 54.9111 134.586 54.9253 134.523C54.9334 134.487 54.9434 134.451 54.9515 134.415C54.9575 134.391 54.9636 134.367 54.9677 134.344C54.9697 134.336 54.9717 134.328 54.9737 134.322C54.9777 134.3 54.9838 134.28 54.9879 134.26C55.0767 133.9 55.1681 133.54 55.2623 133.18C55.2623 133.178 55.2623 133.178 55.2643 133.176C55.9556 130.427 56.9717 127.769 58.2915 125.258C58.3319 125.184 58.3722 125.107 58.4167 125.033C59.0278 123.921 59.7291 122.862 60.5135 121.864C60.9448 121.319 61.4035 120.796 61.8879 120.298C63.1419 119.011 64.5911 117.93 66.1825 117.093C69.355 115.424 73.028 114.784 76.4185 115.804C76.5052 115.83 76.5901 115.856 76.6768 115.884Z" fill="#F0F0F0"/>
<path d="M76.6568 115.996C72.2521 116.868 68.235 119.1 65.1761 122.376C64.505 123.069 63.9479 123.864 63.5251 124.73C63.1407 125.587 62.9937 126.532 63.0994 127.465C63.1804 128.336 63.3647 129.219 63.2315 130.095C63.1567 130.543 62.9878 130.97 62.7358 131.348C62.4838 131.726 62.1545 132.046 61.7694 132.288C60.8257 132.917 59.7116 133.17 58.6135 133.38C57.3942 133.613 56.1241 133.836 55.1065 134.595C54.9832 134.686 54.8472 134.49 54.9703 134.399C56.7408 133.079 59.1133 133.356 61.0501 132.424C61.9538 131.989 62.7315 131.28 62.9554 130.272C63.1512 129.391 62.962 128.481 62.8723 127.599C62.7558 126.69 62.8644 125.767 63.1886 124.91C63.5657 124.025 64.0912 123.21 64.7426 122.501C66.1836 120.88 67.8713 119.496 69.744 118.398C71.8743 117.133 74.2061 116.24 76.6385 115.758C76.789 115.729 76.8064 115.966 76.6568 115.996Z" fill="white"/>
<path d="M66.0983 121.263C65.6163 120.677 65.3591 119.94 65.3726 119.182C65.386 118.425 65.6693 117.697 66.1718 117.128C66.2738 117.013 66.4575 117.166 66.3553 117.281C65.8864 117.809 65.6226 118.488 65.6116 119.193C65.6005 119.898 65.8428 120.584 66.2949 121.127C66.393 121.245 66.1958 121.38 66.0983 121.263Z" fill="white"/>
<path d="M62.9995 127.028C64.5449 127.195 66.0964 126.775 67.3449 125.852C67.4685 125.761 67.6045 125.957 67.481 126.048C66.1801 127.006 64.5645 127.439 62.9568 127.262C62.8036 127.245 62.8472 127.011 62.9995 127.028Z" fill="white"/>
<path d="M71.9146 117.446C72.0537 117.711 72.2567 117.938 72.5055 118.106C72.7543 118.274 73.0411 118.378 73.3401 118.408C73.4935 118.423 73.4498 118.657 73.2974 118.642C72.9672 118.607 72.6506 118.492 72.3753 118.308C72.1 118.123 71.8743 117.873 71.718 117.581C71.701 117.555 71.6946 117.523 71.7002 117.493C71.7058 117.462 71.723 117.434 71.7482 117.416C71.7744 117.398 71.8065 117.391 71.8376 117.397C71.8688 117.402 71.8964 117.42 71.9146 117.446Z" fill="white"/>
<path d="M59.6401 41.6486H30.3749C29.4705 41.6476 28.6035 41.2892 27.964 40.6521C27.3246 40.0149 26.9649 39.1511 26.9639 38.2501V22.3696C26.9649 21.4685 27.3246 20.6047 27.9641 19.9676C28.6035 19.3305 29.4706 18.9722 30.3749 18.9712H59.6401C60.5445 18.9722 61.4115 19.3305 62.051 19.9676C62.6905 20.6047 63.0502 21.4685 63.0512 22.3696V38.2501C63.0502 39.1511 62.6905 40.0149 62.051 40.6521C61.4115 41.2892 60.5445 41.6476 59.6401 41.6486Z" fill="#E6E6E6"/>
<path d="M104.32 41.6486H75.0546C74.1502 41.6476 73.2832 41.2892 72.6437 40.6521C72.0043 40.0149 71.6446 39.1511 71.6436 38.2501V22.3696C71.6446 21.4685 72.0043 20.6047 72.6437 19.9676C73.2832 19.3305 74.1503 18.9722 75.0546 18.9712H104.32C105.224 18.9722 106.091 19.3305 106.731 19.9676C107.37 20.6047 107.73 21.4685 107.731 22.3696V38.2501C107.73 39.1511 107.37 40.0149 106.731 40.6521C106.091 41.2892 105.224 41.6476 104.32 41.6486Z" fill="#FA8E3C"/>
<path d="M148.999 41.6486H119.733C118.829 41.6476 117.962 41.2892 117.322 40.6521C116.683 40.0149 116.323 39.1511 116.322 38.2501V22.3696C116.323 21.4685 116.683 20.6047 117.322 19.9676C117.962 19.3305 118.829 18.9722 119.733 18.9712H148.999C149.903 18.9722 150.77 19.3305 151.409 19.9676C152.049 20.6047 152.409 21.4685 152.41 22.3696V38.2501C152.409 39.1511 152.049 40.0149 151.409 40.6521C150.77 41.2892 149.903 41.6476 148.999 41.6486Z" fill="#E6E6E6"/>
<path d="M59.6401 77.0323H30.3749C29.4705 77.0313 28.6035 76.6729 27.964 76.0358C27.3246 75.3986 26.9649 74.5348 26.9639 73.6337V57.7532C26.9649 56.8522 27.3246 55.9884 27.9641 55.3513C28.6035 54.7142 29.4706 54.3558 30.3749 54.3549H59.6401C60.5445 54.3558 61.4115 54.7142 62.051 55.3513C62.6905 55.9884 63.0502 56.8522 63.0512 57.7532V73.6337C63.0502 74.5348 62.6905 75.3986 62.051 76.0357C61.4115 76.6729 60.5445 77.0313 59.6401 77.0323Z" fill="#F2F2F2"/>
<path d="M104.32 77.0323H75.0546C74.1502 77.0313 73.2832 76.6729 72.6437 76.0358C72.0043 75.3986 71.6446 74.5348 71.6436 73.6337V57.7532C71.6446 56.8522 72.0043 55.9884 72.6437 55.3513C73.2832 54.7142 74.1503 54.3558 75.0546 54.3549H104.32C105.224 54.3558 106.091 54.7142 106.731 55.3513C107.37 55.9884 107.73 56.8522 107.731 57.7532V73.6337C107.73 74.5348 107.37 75.3986 106.731 76.0357C106.091 76.6729 105.224 77.0313 104.32 77.0323Z" fill="#E6E6E6"/>
<path d="M106.386 79.9545C109.273 79.9545 111.613 77.623 111.613 74.7469C111.613 71.8708 109.273 69.5393 106.386 69.5393C103.499 69.5393 101.159 71.8708 101.159 74.7469C101.159 77.623 103.499 79.9545 106.386 79.9545Z" fill="#FA8E3C"/>
<path d="M108.557 74.3097H106.78V72.5391C106.78 72.4844 106.769 72.4302 106.748 72.3796C106.727 72.3291 106.696 72.2832 106.657 72.2445C106.618 72.2058 106.572 72.1751 106.522 72.1542C106.471 72.1332 106.416 72.1224 106.362 72.1224C106.307 72.1224 106.252 72.1332 106.201 72.1542C106.151 72.1751 106.105 72.2058 106.066 72.2445C106.027 72.2832 105.996 72.3291 105.975 72.3796C105.954 72.4302 105.943 72.4844 105.943 72.5391V74.3097H104.166C104.111 74.3097 104.057 74.3204 104.006 74.3414C103.955 74.3623 103.909 74.393 103.871 74.4317C103.832 74.4704 103.801 74.5163 103.78 74.5669C103.759 74.6174 103.748 74.6716 103.748 74.7263C103.748 74.781 103.759 74.8352 103.78 74.8857C103.801 74.9363 103.832 74.9822 103.871 75.0209C103.909 75.0596 103.955 75.0903 104.006 75.1112C104.057 75.1322 104.111 75.1429 104.166 75.1429H105.943V76.9135C105.943 76.9682 105.954 77.0224 105.975 77.073C105.996 77.1235 106.027 77.1694 106.066 77.2081C106.105 77.2468 106.151 77.2775 106.201 77.2984C106.252 77.3194 106.307 77.3302 106.362 77.3302C106.472 77.3302 106.579 77.2863 106.657 77.2081C106.736 77.13 106.78 77.024 106.78 76.9135V75.1429H108.557C108.612 75.1429 108.666 75.1321 108.717 75.1112C108.768 75.0903 108.814 75.0596 108.852 75.0209C108.891 74.9822 108.922 74.9363 108.943 74.8857C108.964 74.8352 108.975 74.781 108.975 74.7263C108.975 74.6716 108.964 74.6174 108.943 74.5668C108.922 74.5163 108.891 74.4704 108.852 74.4317C108.814 74.393 108.768 74.3623 108.717 74.3414C108.666 74.3204 108.612 74.3097 108.557 74.3097Z" fill="white"/>
<path d="M151.752 45.4841C154.639 45.4841 156.979 43.1525 156.979 40.2765C156.979 37.4004 154.639 35.0688 151.752 35.0688C148.866 35.0688 146.525 37.4004 146.525 40.2765C146.525 43.1525 148.866 45.4841 151.752 45.4841Z" fill="#FA8E3C"/>
<path d="M153.923 39.8392H152.146V38.0686C152.146 38.0139 152.135 37.9597 152.114 37.9092C152.093 37.8586 152.062 37.8127 152.023 37.774C151.985 37.7353 151.938 37.7046 151.888 37.6837C151.837 37.6628 151.783 37.652 151.728 37.652C151.673 37.652 151.618 37.6628 151.568 37.6837C151.517 37.7046 151.471 37.7353 151.432 37.774C151.393 37.8127 151.362 37.8586 151.341 37.9092C151.32 37.9597 151.31 38.0139 151.31 38.0686V39.8392H149.532C149.478 39.8392 149.423 39.85 149.372 39.8709C149.322 39.8919 149.276 39.9225 149.237 39.9612C149.198 39.9999 149.167 40.0458 149.146 40.0964C149.125 40.1469 149.114 40.2011 149.114 40.2558C149.114 40.3105 149.125 40.3647 149.146 40.4153C149.167 40.4658 149.198 40.5118 149.237 40.5504C149.276 40.5891 149.322 40.6198 149.372 40.6408C149.423 40.6617 149.478 40.6725 149.532 40.6725H151.31V42.4431C151.31 42.4978 151.32 42.552 151.341 42.6025C151.362 42.653 151.393 42.699 151.432 42.7377C151.471 42.7764 151.517 42.807 151.568 42.828C151.618 42.8489 151.673 42.8597 151.728 42.8597C151.839 42.8597 151.945 42.8158 152.023 42.7377C152.102 42.6595 152.146 42.5536 152.146 42.4431V40.6725H153.923C153.978 40.6725 154.032 40.6617 154.083 40.6407C154.134 40.6198 154.18 40.5891 154.219 40.5504C154.258 40.5117 154.288 40.4658 154.309 40.4153C154.33 40.3647 154.341 40.3105 154.341 40.2558C154.341 40.2011 154.33 40.1469 154.309 40.0964C154.288 40.0458 154.258 39.9999 154.219 39.9612C154.18 39.9225 154.134 39.8918 154.083 39.8709C154.032 39.85 153.978 39.8392 153.923 39.8392Z" fill="white"/>
<path d="M61.7064 45.0274C64.5931 45.0274 66.9332 42.6959 66.9332 39.8198C66.9332 36.9437 64.5931 34.6122 61.7064 34.6122C58.8196 34.6122 56.4795 36.9437 56.4795 39.8198C56.4795 42.6959 58.8196 45.0274 61.7064 45.0274Z" fill="#FA8E3C"/>
<path d="M63.8771 39.3825H62.1V37.612C62.1 37.5572 62.0892 37.5031 62.0682 37.4525C62.0472 37.402 62.0164 37.356 61.9775 37.3173C61.9387 37.2787 61.8926 37.248 61.8419 37.227C61.7911 37.2061 61.7368 37.1953 61.6818 37.1953C61.6269 37.1953 61.5726 37.2061 61.5218 37.227C61.4711 37.248 61.425 37.2787 61.3862 37.3173C61.3473 37.356 61.3165 37.402 61.2955 37.4525C61.2745 37.5031 61.2637 37.5572 61.2637 37.612V39.3825H59.4865C59.4316 39.3825 59.3772 39.3933 59.3265 39.4143C59.2758 39.4352 59.2297 39.4659 59.1908 39.5046C59.152 39.5433 59.1212 39.5892 59.1002 39.6397C59.0792 39.6903 59.0684 39.7445 59.0684 39.7992C59.0684 39.9097 59.1124 40.0156 59.1908 40.0938C59.2693 40.1719 59.3756 40.2158 59.4865 40.2158H61.2637V41.9864C61.2637 42.0411 61.2745 42.0953 61.2955 42.1458C61.3165 42.1964 61.3473 42.2423 61.3861 42.281C61.425 42.3197 61.4711 42.3504 61.5218 42.3713C61.5725 42.3923 61.6269 42.403 61.6818 42.403C61.7368 42.403 61.7911 42.3923 61.8419 42.3713C61.8926 42.3504 61.9387 42.3197 61.9775 42.281C62.0164 42.2423 62.0472 42.1964 62.0682 42.1458C62.0892 42.0953 62.1 42.0411 62.1 41.9864V40.2158H63.8771C63.9321 40.2158 63.9864 40.205 64.0372 40.1841C64.0879 40.1631 64.134 40.1325 64.1728 40.0938C64.2117 40.0551 64.2425 40.0091 64.2635 39.9586C64.2845 39.9081 64.2953 39.8539 64.2953 39.7992C64.2953 39.6887 64.2513 39.5827 64.1728 39.5046C64.0944 39.4264 63.9881 39.3825 63.8771 39.3825Z" fill="white"/>
<path d="M100.839 32.6259C100.934 32.9133 100.965 33.2181 100.93 33.5186C100.894 33.8192 100.793 34.1084 100.633 34.3658C100.473 34.6231 100.258 34.8424 100.004 35.0082C99.75 35.1739 99.4624 35.2822 99.1617 35.3253L96.7448 51.7617L92.7803 49.8325L96.7679 33.4258C96.7288 32.9177 96.8781 32.413 97.1875 32.0072C97.497 31.6014 97.9451 31.3229 98.4469 31.2243C98.9487 31.1257 99.4694 31.2139 99.9103 31.4722C100.351 31.7306 100.682 32.1411 100.839 32.6259Z" fill="#9E616A"/>
<path d="M71.9717 85.2676C72.1482 85.0212 72.2683 84.7393 72.3236 84.4417C72.3789 84.1441 72.368 83.838 72.2917 83.545C72.2154 83.252 72.0756 82.9792 71.8821 82.7459C71.6885 82.5126 71.446 82.3244 71.1716 82.1946L72.8021 64.7113L69.387 66.4553L68.3207 83.3027C68.1323 83.7765 68.1249 84.3027 68.2999 84.7815C68.4749 85.2604 68.8202 85.6586 69.2702 85.9008C69.7202 86.143 70.2438 86.2123 70.7417 86.0956C71.2396 85.9789 71.6772 85.6843 71.9717 85.2676Z" fill="#9E616A"/>
<path d="M74.3046 76.4251L88.9597 75.8635L89.8052 60.7008H72.8955L74.3046 76.4251Z" fill="#9E616A"/>
<path d="M71.5854 129.973L74.0898 129.973L75.281 120.349H71.585L71.5854 129.973Z" fill="#9E616A"/>
<path d="M70.964 128.742L74.9228 128.507V130.197L78.6865 132.787C78.8724 132.914 79.0124 133.098 79.0861 133.311C79.1598 133.524 79.1633 133.754 79.096 133.969C79.0288 134.184 78.8944 134.372 78.7124 134.505C78.5304 134.639 78.3104 134.711 78.0845 134.711H73.3714L72.559 133.039L72.2419 134.711H70.4648L70.964 128.742Z" fill="#2F2E41"/>
<path d="M82.7241 129.973L85.2284 129.973L86.4197 120.349H82.7236L82.7241 129.973Z" fill="#9E616A"/>
<path d="M74.1021 72.8656C74.1021 72.8656 69.7172 76.3926 72.0943 88.9888C71.7323 89.0317 72.1422 89.7426 72.1422 89.7426L72.4852 100.006L72.7502 101.182L71.869 103.08L72.2323 105.143L71.1123 123.86L75.2497 124.393L79.209 104.956L79.963 102.771L80.7194 100.856L80.3114 98.813L80.646 95.6426L82.9285 84.9524L83.4873 103.493L82.7076 105.263L83.1415 107.206L82.1748 108.238L81.7927 125.585L86.2044 125.79L89.8546 108.303L89.5716 106.072L90.0572 104.422V100.567L90.889 98.7485L92.7023 88.8303C92.7023 88.8303 93.2493 81.0782 89.2581 71.9559L74.1021 72.8656Z" fill="#2F2E41"/>
<path d="M75.889 48.0991C75.889 48.0991 70.3507 49.1904 69.3964 53.8963C68.4421 58.6021 67.8281 69.2511 67.8281 69.2511L68.0371 70.7341L73.3945 71.9718L76.8138 57.0507L75.889 48.0991Z" fill="#3F3D56"/>
<path d="M88.5283 49.6875C88.5283 49.6875 89.0897 48.9037 92.2335 48.7828C92.363 48.7778 92.2027 48.522 92.2027 48.522L93.7147 41.1593L98.7533 43.9387L97.9027 51.6576L89.6232 61.0401L88.5283 49.6875Z" fill="#3F3D56"/>
<path d="M85.3875 71.637C83.0155 71.6372 79.4449 71.3764 74.0697 70.5813C73.7235 70.5293 73.403 70.3683 73.1551 70.122C72.9072 69.8756 72.7449 69.5567 72.6918 69.2119C72.5163 69.0272 72.4021 68.7932 72.3647 68.5416C72.3273 68.29 72.3687 68.033 72.483 67.8056L72.488 67.7959L72.3662 67.6529C72.1779 67.4324 72.0672 67.1565 72.0512 66.8674C72.0352 66.5784 72.1147 66.292 72.2776 66.0523L70.6129 54.1874C70.444 53.0092 70.7026 51.8095 71.3422 50.8043C71.9818 49.7991 72.9604 49.0542 74.102 48.7037L74.7165 48.5131L77.0404 45.4846L77.0862 45.4851L84.5467 45.5841L86.9678 48.6472L90.8815 49.5667L90.8916 49.626L91.8004 54.8569C92.2729 57.5775 91.1891 58.6477 89.8057 61.0402L90.2117 67.7595L90.3959 68.093C90.4982 68.2775 90.5324 68.4919 90.4927 68.699C90.4531 68.9061 90.342 69.0929 90.1787 69.227C90.3022 69.5785 90.3106 69.9599 90.2028 70.3164L90.107 70.6316C90.1072 70.6407 90.0817 70.7688 89.875 70.9251C89.5025 71.2071 88.4327 71.637 85.3875 71.637Z" fill="#3F3D56"/>
<path d="M82.1027 128.742L86.0615 128.507V130.197L89.8252 132.787C90.0111 132.914 90.1511 133.098 90.2248 133.311C90.2985 133.524 90.3019 133.754 90.2347 133.969C90.1675 134.184 90.033 134.372 89.8511 134.505C89.6691 134.639 89.4491 134.711 89.2232 134.711H84.5101L83.6977 133.039L83.3805 134.711H81.6035L82.1027 128.742Z" fill="#2F2E41"/>
<path d="M86.2608 38.8849C86.7782 35.7082 84.6128 32.715 81.4243 32.1995C78.2359 31.684 75.2316 33.8414 74.7142 37.0181C74.1968 40.1949 76.3621 43.188 79.5506 43.7035C82.7391 44.2191 85.7434 42.0617 86.2608 38.8849Z" fill="#9E616A"/>
<path d="M83.9073 32.2576C81.7636 30.7887 79.8758 30.5649 78.3251 30.9815C78.1241 30.6718 77.8422 30.4224 77.5097 30.2602C76.3003 27.224 72.6198 25.4006 69.4612 26.287C66.2822 27.1791 64.0888 30.6875 64.6869 33.9236C65.0576 35.9295 66.3247 37.6665 66.8344 39.6419C67.8209 43.466 65.4143 47.8464 61.6494 49.0791C65.2141 49.7922 69.1379 47.6229 70.4167 44.2319C71.0378 42.5848 71.0753 40.7866 71.1542 39.0289C71.175 37.8156 71.3242 36.6079 71.5993 35.4259C71.7359 34.8956 71.9288 34.3813 72.1748 33.8918C72.7107 32.8157 73.6008 31.9554 74.6966 31.4542C74.5985 31.7566 74.5739 32.0778 74.625 32.3915C74.6761 32.7052 74.8013 33.0023 74.9903 33.2582C74.1543 34.3016 73.6993 35.4299 73.6993 36.1056C71.9626 39.2679 74.446 41.9842 77.6201 43.7144C78.8861 44.4081 80.3479 44.662 81.7748 44.436L81.9076 43.8713L82.0875 44.38L82.6881 46.0856C83.3809 46.4195 84.0678 46.7856 84.7486 47.1837C84.4899 45.9735 84.2807 44.7655 84.1367 43.5844C83.9373 41.9769 84.6323 39.5836 85.1336 38.1283C85.4444 37.2313 85.6039 36.2892 85.6057 35.3403V35.2988L86.0938 36.8609L87.8708 36.1056C87.5402 34.2163 87.8708 32.0715 83.9073 32.2576Z" fill="#2F2E41"/>
<path d="M156.99 135H27.0088C26.9366 135 26.8676 134.971 26.8167 134.92C26.7659 134.869 26.7373 134.8 26.7373 134.728C26.7373 134.656 26.7659 134.587 26.8167 134.537C26.8676 134.486 26.9366 134.457 27.0088 134.456H156.99C157.063 134.457 157.132 134.486 157.182 134.537C157.233 134.587 157.262 134.656 157.262 134.728C157.262 134.8 157.233 134.869 157.182 134.92C157.132 134.971 157.063 135 156.99 135Z" fill="#CCCCCC"/>
<path d="M61.1087 80.6389C63.9954 80.6389 66.3356 78.3073 66.3356 75.4312C66.3356 72.5552 63.9954 70.2236 61.1087 70.2236C58.222 70.2236 55.8818 72.5552 55.8818 75.4312C55.8818 78.3073 58.222 80.6389 61.1087 80.6389Z" fill="#E6E6E6"/>
<path d="M139.753 72.4383H121.42C120.854 72.4377 120.31 72.2132 119.91 71.814C119.509 71.4149 119.284 70.8737 119.283 70.3093V60.3611C119.284 59.7966 119.509 59.2555 119.91 58.8564C120.31 58.4573 120.854 58.2328 121.42 58.2322H139.753C140.32 58.2328 140.863 58.4573 141.263 58.8564C141.664 59.2555 141.889 59.7966 141.89 60.3611V70.3093C141.889 70.8737 141.664 71.4149 141.263 71.814C140.863 72.2132 140.32 72.4377 139.753 72.4383Z" fill="#F2F2F2"/>
<path d="M140.023 68.3974C141.556 68.3974 142.799 67.1592 142.799 65.6319C142.799 64.1045 141.556 62.8663 140.023 62.8663C138.49 62.8663 137.247 64.1045 137.247 65.6319C137.247 67.1592 138.49 68.3974 140.023 68.3974Z" fill="#FA8E3C"/>
<path d="M141.176 65.3996H140.232V64.4593C140.232 64.4302 140.226 64.4015 140.215 64.3746C140.204 64.3478 140.188 64.3234 140.167 64.3028C140.146 64.2823 140.122 64.266 140.095 64.2549C140.068 64.2438 140.039 64.238 140.01 64.238C139.951 64.238 139.895 64.2613 139.853 64.3028C139.811 64.3443 139.788 64.4006 139.788 64.4593V65.3996H138.844C138.785 65.3996 138.729 65.4229 138.687 65.4644C138.645 65.5059 138.622 65.5622 138.622 65.6208C138.622 65.6499 138.628 65.6787 138.639 65.7055C138.65 65.7323 138.666 65.7567 138.687 65.7773C138.708 65.7978 138.732 65.8141 138.759 65.8253C138.786 65.8364 138.815 65.8421 138.844 65.8421H139.788V66.7824C139.788 66.8114 139.794 66.8402 139.805 66.867C139.816 66.8939 139.832 66.9183 139.853 66.9388C139.874 66.9594 139.898 66.9757 139.925 66.9868C139.952 66.9979 139.981 67.0036 140.01 67.0036C140.069 67.0036 140.125 66.9803 140.167 66.9388C140.209 66.8973 140.232 66.841 140.232 66.7824V65.8421H141.176C141.235 65.8421 141.291 65.8188 141.333 65.7773C141.375 65.7358 141.398 65.6795 141.398 65.6208C141.398 65.5918 141.392 65.563 141.381 65.5362C141.37 65.5093 141.353 65.4849 141.333 65.4644C141.312 65.4438 141.288 65.4275 141.261 65.4164C141.234 65.4053 141.205 65.3996 141.176 65.3996Z" fill="white"/>
<path d="M147.222 69.6152H132.114C131.473 69.6145 130.858 69.3604 130.405 68.9086C129.951 68.4569 129.696 67.8444 129.695 67.2055V58.2204C129.696 58.1028 129.743 57.9902 129.826 57.9071C129.91 57.8241 130.023 57.7775 130.141 57.7775C130.259 57.7775 130.372 57.8241 130.456 57.9071C130.539 57.9902 130.586 58.1028 130.587 58.2204V60.6267L148.135 62.2161C148.486 62.2223 148.82 62.3653 149.066 62.6143C149.312 62.8634 149.45 63.1986 149.45 63.5478C149.45 63.5753 149.447 63.6027 149.442 63.6296L148.558 68.3287C148.546 68.6738 148.4 69.0006 148.151 69.2406C147.901 69.4805 147.569 69.6148 147.222 69.6152ZM130.587 61.5183V67.2055C130.587 67.609 130.748 67.9958 131.034 68.2811C131.321 68.5664 131.709 68.7268 132.114 68.7273H147.222C147.34 68.7272 147.453 68.6804 147.537 68.5971C147.621 68.5139 147.668 68.401 147.668 68.2833C147.668 68.2559 147.67 68.2285 147.675 68.2015L148.558 63.5136C148.549 63.4021 148.498 63.2981 148.416 63.2222C148.333 63.1462 148.225 63.104 148.113 63.1039C148.1 63.1039 148.086 63.1033 148.073 63.102L130.587 61.5183Z" fill="#FA8E3C"/>
<path d="M128.099 73.7588C128.509 73.7588 128.842 73.4275 128.842 73.0189C128.842 72.6102 128.509 72.2789 128.099 72.2789C127.689 72.2789 127.356 72.6102 127.356 73.0189C127.356 73.4275 127.689 73.7588 128.099 73.7588Z" fill="#FA8E3C"/>
<path d="M146.627 73.7588C147.038 73.7588 147.37 73.4275 147.37 73.0189C147.37 72.6102 147.038 72.2789 146.627 72.2789C146.217 72.2789 145.885 72.6102 145.885 73.0189C145.885 73.4275 146.217 73.7588 146.627 73.7588Z" fill="#FA8E3C"/>
<path d="M147.37 72.2789H127.505C127.387 72.2789 127.274 72.2321 127.19 72.1489C127.107 72.0656 127.06 71.9527 127.06 71.8349C127.06 71.7172 127.107 71.6043 127.19 71.521C127.274 71.4378 127.387 71.391 127.505 71.391H147.37C147.489 71.391 147.602 71.4378 147.686 71.521C147.769 71.6043 147.816 71.7172 147.816 71.8349C147.816 71.9527 147.769 72.0656 147.686 72.1489C147.602 72.2321 147.489 72.2789 147.37 72.2789Z" fill="#FA8E3C"/>
<path d="M131.329 58.5163H127.467C127.349 58.5161 127.236 58.4692 127.153 58.3859C127.069 58.3027 127.022 58.1899 127.022 58.0724C127.022 57.9548 127.069 57.842 127.153 57.7588C127.236 57.6756 127.349 57.6287 127.467 57.6284H131.329C131.447 57.6287 131.56 57.6756 131.643 57.7588C131.727 57.842 131.773 57.9548 131.773 58.0724C131.773 58.1899 131.727 58.3027 131.643 58.3859C131.56 58.4692 131.447 58.5161 131.329 58.5163Z" fill="#FA8E3C"/>
<path d="M134.427 72.0529C134.32 72.053 134.217 72.0149 134.137 71.9457L131.208 69.438C131.163 69.4001 131.127 69.3537 131.1 69.3017C131.074 69.2496 131.058 69.1929 131.053 69.1347C131.049 69.0765 131.056 69.0179 131.074 68.9625C131.092 68.907 131.121 68.8556 131.159 68.8114C131.198 68.7671 131.244 68.7307 131.296 68.7044C131.349 68.6781 131.406 68.6623 131.464 68.658C131.523 68.6536 131.581 68.6608 131.637 68.6791C131.693 68.6974 131.744 68.7264 131.788 68.7646L134.717 71.2722C134.786 71.3313 134.836 71.41 134.858 71.4978C134.881 71.5856 134.876 71.6783 134.845 71.7633C134.813 71.8483 134.756 71.9216 134.681 71.9734C134.607 72.0252 134.518 72.0529 134.427 72.0529Z" fill="#FA8E3C"/>
<path d="M135.044 69.3424C134.986 69.3424 134.928 69.3309 134.874 69.3086C134.82 69.2863 134.771 69.2536 134.729 69.2124C134.688 69.1712 134.655 69.1223 134.633 69.0684C134.61 69.0145 134.599 68.9568 134.599 68.8985V61.772C134.599 61.6542 134.646 61.5413 134.729 61.458C134.813 61.3748 134.926 61.328 135.044 61.328C135.162 61.328 135.276 61.3748 135.359 61.458C135.443 61.5413 135.49 61.6542 135.49 61.772V68.8985C135.49 68.9568 135.478 69.0145 135.456 69.0684C135.434 69.1222 135.401 69.1712 135.359 69.2124C135.318 69.2536 135.269 69.2863 135.215 69.3086C135.161 69.3309 135.103 69.3424 135.044 69.3424Z" fill="#FA8E3C"/>
<path d="M144.457 69.3425C144.399 69.3425 144.341 69.331 144.287 69.3087C144.233 69.2864 144.184 69.2537 144.142 69.2125C144.101 69.1713 144.068 69.1223 144.046 69.0685C144.023 69.0146 144.012 68.9569 144.012 68.8986V62.364C144.012 62.2464 144.059 62.1337 144.143 62.0507C144.226 61.9677 144.339 61.921 144.457 61.921C144.575 61.921 144.689 61.9677 144.772 62.0507C144.856 62.1337 144.903 62.2464 144.903 62.364V68.8985C144.903 68.9568 144.891 69.0146 144.869 69.0684C144.847 69.1223 144.814 69.1712 144.772 69.2125C144.731 69.2537 144.682 69.2864 144.628 69.3087C144.574 69.331 144.516 69.3425 144.457 69.3425Z" fill="#FA8E3C"/>
</g>
<defs>
<clipPath id="clip0_366_6420">
<rect width="184" height="135" fill="white"/>
</clipPath>
</defs>
</svg>
