<svg width="165" height="130" viewBox="0 0 165 130" fill="none" xmlns="http://www.w3.org/2000/svg">
<g clip-path="url(#clip0_366_6324)">
<path d="M160.655 60.2425C162.098 60.2425 163.268 59.0732 163.268 57.6308C163.268 56.1884 162.098 55.0192 160.655 55.0192C159.212 55.0192 158.042 56.1884 158.042 57.6308C158.042 59.0732 159.212 60.2425 160.655 60.2425Z" fill="#F2F2F2"/>
<path d="M39.7468 60.8857C39.534 61.0347 39.2912 61.1354 39.0353 61.1805C38.7794 61.2256 38.5168 61.2141 38.2658 61.1468C38.0149 61.0795 37.7818 60.958 37.5829 60.7908C37.384 60.6237 37.2242 60.4151 37.1147 60.1795L30.8311 60.8154L32.3527 57.9089L38.0865 57.7506C38.4945 57.5931 38.9462 57.5906 39.356 57.7436C39.7658 57.8967 40.1051 58.1946 40.3098 58.5811C40.5145 58.9675 40.5702 59.4155 40.4664 59.8403C40.3626 60.265 40.1066 60.637 39.7468 60.8857Z" fill="#FFB6B6"/>
<path d="M21.6147 63.7462L7.7689 58.0114C6.67189 57.5557 5.80056 56.6836 5.34609 55.5865C4.89162 54.4894 4.89113 53.257 5.34472 52.1595C5.59653 51.5522 5.97902 51.0077 6.46503 50.5648C6.95104 50.1218 7.52865 49.7913 8.15686 49.5965C8.78507 49.4018 9.44846 49.3477 10.1 49.438C10.7514 49.5283 11.375 49.7609 11.9265 50.1192L23.0825 57.3685L34.6925 56.7809L35.5617 60.3946L21.6147 63.7462Z" fill="#FA8E3C"/>
<path d="M19.0649 125.396H21.2816L22.3362 116.849L19.0645 116.849L19.0649 125.396Z" fill="#FFB6B6"/>
<path d="M18.3139 124.303L21.8183 124.094V125.594L25.15 127.894C25.3146 128.008 25.4385 128.171 25.5037 128.36C25.5689 128.549 25.572 128.754 25.5125 128.945C25.453 129.135 25.334 129.302 25.1729 129.421C25.0118 129.539 24.8171 129.603 24.6171 129.603H20.445L19.7259 128.119L19.4451 129.603H17.8721L18.3139 124.303Z" fill="#2F2E41"/>
<path d="M4.80216 125.396H7.01893L8.07355 116.849L4.80176 116.849L4.80216 125.396Z" fill="#FFB6B6"/>
<path d="M4.05126 124.303L7.55562 124.094V125.594L10.8873 127.894C11.0519 128.008 11.1758 128.171 11.241 128.36C11.3063 128.549 11.3093 128.754 11.2498 128.945C11.1903 129.135 11.0713 129.302 10.9102 129.421C10.7491 129.539 10.5544 129.603 10.3544 129.603H6.18232L5.4632 128.119L5.18241 129.603H3.60938L4.05126 124.303Z" fill="#2F2E41"/>
<path d="M16.0083 78.1312L24.6511 95.2696C25.1247 96.206 25.2712 97.2739 25.0671 98.3032C24.8915 99.1826 24.622 100.041 24.2632 100.863L23.1034 114.616L22.0643 118.93L18.3258 119.249C18.3258 119.249 18.6152 115.632 17.6022 110.562C16.5892 105.491 18.3258 98.1063 18.3258 98.1063C18.3258 98.1063 15.14 92.8951 11.5181 90.2874C7.89617 87.6798 16.0083 78.1312 16.0083 78.1312Z" fill="#2F2E41"/>
<path d="M6.73819 70.3848C6.73819 70.3848 4.94532 73.5609 3.62077 75.2706C2.39705 76.8187 1.80466 78.7722 1.96256 80.7389C2.0912 82.1452 2.58565 83.662 3.84187 84.8633C3.84187 84.8633 4.71016 87.035 4.27601 88.1942V98.478C4.27601 98.478 1.95123 110.621 3.97926 114.241L4.85488 122.367C4.85488 122.367 7.92819 123.229 8.07291 121.782C8.07291 121.782 8.47479 118.604 8.62956 117.589L8.74613 107.197C8.77006 105.847 9.18932 104.533 9.9521 103.418C10.5551 102.532 11.1581 101.156 11.2385 99.1992L16.0081 78.1313L17.0699 70.7718L6.73819 70.3848Z" fill="#2F2E41"/>
<path d="M4.06902 59.0659L5.92289 68.3307L1.86133 77.7954L17.0345 71.9492L17.2405 71.3905L17.7424 69.4877L17.1477 63.5634C17.3566 63.1285 20.3303 60.3824 17.2202 55.5542L13.8606 47.6726L7.56789 47.5769L7.54176 47.603C6.06216 49.0794 4.97081 50.8985 4.36491 52.8985C3.75901 54.8984 3.65736 57.0171 4.06902 59.0659Z" fill="#FA8E3C"/>
<path d="M13.2967 86.2974C13.0895 86.1408 12.919 85.9407 12.7975 85.7112C12.6759 85.4817 12.6062 85.2283 12.5932 84.9689C12.5802 84.7096 12.6243 84.4505 12.7223 84.21C12.8204 83.9695 12.97 83.7534 13.1606 83.5769L10.625 77.7953L13.8598 78.3499L15.7717 83.7552C16.0471 84.0949 16.1882 84.5238 16.1684 84.9606C16.1485 85.3974 15.969 85.8117 15.664 86.1251C15.3589 86.4384 14.9494 86.629 14.5131 86.6608C14.0768 86.6926 13.644 86.5633 13.2967 86.2974Z" fill="#FFB6B6"/>
<path d="M5.00391 69.9293L6.2111 54.9978C6.30806 53.8144 6.87075 52.7177 7.77571 51.9484C8.68067 51.1791 9.85399 50.8001 11.0382 50.8944C11.6938 50.9474 12.3297 51.144 12.9007 51.4702C13.4718 51.7964 13.9639 52.2443 14.3423 52.782C14.7207 53.3198 14.976 53.9342 15.0901 54.5816C15.2042 55.229 15.1743 55.8936 15.0026 56.5282L11.5271 69.3664L15.6528 80.2292L12.4791 82.1661L5.00391 69.9293Z" fill="#FA8E3C"/>
<path d="M0.254883 48.0529L15.6147 44.9141C16.0377 43.5039 16.8479 42.2091 14.6109 40.0069C14.2643 38.3125 13.2734 36.8186 11.8469 35.8398C10.4203 34.8611 8.6694 34.4738 6.96285 34.7595C3.43727 34.4459 1.45668 36.9504 1.46691 40.312L0.254883 48.0529Z" fill="#2F2E41"/>
<path d="M9.21135 45.9323C12.0949 45.9323 14.4325 43.5959 14.4325 40.7138C14.4325 37.8317 12.0949 35.4952 9.21135 35.4952C6.32781 35.4952 3.99023 37.8317 3.99023 40.7138C3.99023 43.5959 6.32781 45.9323 9.21135 45.9323Z" fill="#FFB8B8"/>
<path d="M5.27564 36.3481C5.98018 35.2936 7.07317 34.5601 8.31639 34.3076L9.30099 34.1064C10.5544 33.8503 11.8583 34.1023 12.9259 34.807C13.9934 35.5118 14.7371 36.6116 14.9934 37.8644C14.2859 38.7852 10.0913 39.483 7.59089 39.7872C8.29111 42.3126 10.983 44.3846 10.6918 45.9202L0.845751 47.9323L0.644443 46.9482C-1.083 42.7962 1.32664 38.546 5.27564 36.3481Z" fill="#2F2E41"/>
<path d="M0.211914 48.3338L15.5717 45.195C15.9947 43.7848 16.805 42.49 14.568 40.2878C14.2214 38.5934 13.2305 37.0995 11.8039 36.1207C10.3773 35.1419 8.62643 34.7547 6.91988 35.0404C3.3943 34.7268 1.41371 37.2312 1.42394 40.5929L0.211914 48.3338Z" fill="#2F2E41"/>
<path d="M9.16935 46.2131C12.0529 46.2131 14.3905 43.8767 14.3905 40.9945C14.3905 38.1124 12.0529 35.776 9.16935 35.776C6.28581 35.776 3.94824 38.1124 3.94824 40.9945C3.94824 43.8767 6.28581 46.2131 9.16935 46.2131Z" fill="#FFB8B8"/>
<path d="M5.23268 36.6288C5.93722 35.5743 7.0302 34.8409 8.27342 34.5884L9.25803 34.3872C10.5115 34.131 11.8154 34.3831 12.8829 35.0878C13.9504 35.7926 14.6941 36.8923 14.9504 38.1451C14.243 39.066 10.0483 39.7638 7.54792 40.068C8.24814 42.5933 10.94 44.6653 10.6488 46.201L0.802785 48.2131L0.601474 47.2289C-1.12597 43.077 1.28367 38.8268 5.23268 36.6288Z" fill="#2F2E41"/>
<path d="M81.1242 85.9432H41.3004C40.197 85.9419 39.1392 85.5032 38.359 84.7234C37.5788 83.9436 37.1399 82.8862 37.1387 81.7834V29.8341C37.1399 28.7313 37.5788 27.674 38.359 26.8941C39.1392 26.1143 40.1971 25.6757 41.3004 25.6744H81.1242C82.2275 25.6757 83.2854 26.1143 84.0656 26.8941C84.8458 27.674 85.2847 28.7313 85.2859 29.8341V81.7834C85.2847 82.8862 84.8458 83.9436 84.0656 84.7234C83.2854 85.5032 82.2275 85.9419 81.1242 85.9432Z" fill="#F0F0F0"/>
<path d="M81.1239 86.1439H41.3002C40.1435 86.1426 39.0346 85.6827 38.2167 84.8652C37.3989 84.0477 36.9388 82.9394 36.9375 81.7833V29.8341C36.9388 28.678 37.3989 27.5696 38.2168 26.7521C39.0346 25.9347 40.1435 25.4748 41.3002 25.4735H81.1239C82.2806 25.4748 83.3895 25.9346 84.2074 26.7521C85.0253 27.5696 85.4854 28.678 85.4867 29.8341V81.7833C85.4854 82.9394 85.0253 84.0478 84.2074 84.8653C83.3895 85.6828 82.2806 86.1426 81.1239 86.1439ZM41.3002 25.8753C40.2501 25.8765 39.2434 26.2939 38.5009 27.0361C37.7583 27.7783 37.3407 28.7845 37.3395 29.8341V81.7833C37.3407 82.8328 37.7583 83.8391 38.5008 84.5813C39.2434 85.3235 40.2501 85.7409 41.3002 85.7421H81.1239C82.174 85.741 83.1808 85.3235 83.9233 84.5813C84.6659 83.8391 85.0836 82.8329 85.0847 81.7833V29.8341C85.0835 28.7845 84.6659 27.7782 83.9233 27.0361C83.1808 26.2939 82.174 25.8765 81.1239 25.8753H41.3002Z" fill="#FA8E3C"/>
<path d="M145.82 85.9432H105.997C104.893 85.9419 103.835 85.5032 103.055 84.7234C102.275 83.9436 101.836 82.8862 101.835 81.7834V29.8341C101.836 28.7313 102.275 27.674 103.055 26.8941C103.836 26.1143 104.893 25.6757 105.997 25.6744H145.82C146.924 25.6757 147.982 26.1143 148.762 26.8941C149.542 27.674 149.981 28.7313 149.982 29.8341V81.7834C149.981 82.8862 149.542 83.9436 148.762 84.7234C147.982 85.5032 146.924 85.9419 145.82 85.9432Z" fill="#F0F0F0"/>
<path d="M164.801 7.34326H27.2553C27.2019 7.34208 27.1512 7.32007 27.1139 7.28194C27.0766 7.24382 27.0557 7.19261 27.0557 7.13928C27.0557 7.08595 27.0766 7.03475 27.1139 6.99662C27.1512 6.9585 27.2019 6.93649 27.2553 6.9353H164.801C164.854 6.93649 164.905 6.9585 164.942 6.99662C164.979 7.03475 165 7.08595 165 7.13928C165 7.19261 164.979 7.24382 164.942 7.28194C164.905 7.32007 164.854 7.34208 164.801 7.34326Z" fill="#CACACA"/>
<path d="M31.7487 4.48753C32.9614 4.48753 33.9446 3.48296 33.9446 2.24377C33.9446 1.00457 32.9614 0 31.7487 0C30.5359 0 29.5527 1.00457 29.5527 2.24377C29.5527 3.48296 30.5359 4.48753 31.7487 4.48753Z" fill="#3F3D56"/>
<path d="M39.3346 4.48753C40.5474 4.48753 41.5305 3.48296 41.5305 2.24377C41.5305 1.00457 40.5474 0 39.3346 0C38.1218 0 37.1387 1.00457 37.1387 2.24377C37.1387 3.48296 38.1218 4.48753 39.3346 4.48753Z" fill="#3F3D56"/>
<path d="M46.9205 4.48753C48.1333 4.48753 49.1165 3.48296 49.1165 2.24377C49.1165 1.00457 48.1333 0 46.9205 0C45.7078 0 44.7246 1.00457 44.7246 2.24377C44.7246 3.48296 45.7078 4.48753 46.9205 4.48753Z" fill="#3F3D56"/>
<path d="M160.255 1.37244H154.865C154.758 1.37008 154.657 1.32607 154.582 1.24982C154.508 1.17356 154.466 1.07114 154.466 0.964478C154.466 0.857814 154.508 0.755391 154.582 0.67914C154.657 0.60289 154.758 0.558873 154.865 0.556519H160.255C160.362 0.558873 160.463 0.60289 160.538 0.67914C160.613 0.755391 160.654 0.857814 160.654 0.964478C160.654 1.07114 160.613 1.17356 160.538 1.24982C160.463 1.32607 160.362 1.37008 160.255 1.37244Z" fill="#3F3D56"/>
<path d="M160.255 2.90234H154.865C154.758 2.89999 154.657 2.85597 154.582 2.77972C154.508 2.70347 154.466 2.60105 154.466 2.49438C154.466 2.38772 154.508 2.2853 154.582 2.20905C154.657 2.1328 154.758 2.08878 154.865 2.08643H160.255C160.362 2.08878 160.463 2.1328 160.538 2.20905C160.613 2.2853 160.654 2.38772 160.654 2.49438C160.654 2.60105 160.613 2.70347 160.538 2.77972C160.463 2.85597 160.362 2.89999 160.255 2.90234Z" fill="#3F3D56"/>
<path d="M160.255 4.43213H154.865C154.758 4.42977 154.657 4.38576 154.582 4.30951C154.508 4.23326 154.466 4.13083 154.466 4.02417C154.466 3.91751 154.508 3.81508 154.582 3.73883C154.657 3.66258 154.758 3.61857 154.865 3.61621H160.255C160.362 3.61857 160.463 3.66258 160.538 3.73883C160.613 3.81508 160.654 3.91751 160.654 4.02417C160.654 4.13083 160.613 4.23326 160.538 4.30951C160.463 4.38576 160.362 4.42977 160.255 4.43213Z" fill="#3F3D56"/>
<path d="M148.092 24.7295L148.088 24.7331C147.702 24.3415 147.181 24.113 146.632 24.0949C146.083 24.0768 145.548 24.2706 145.138 24.6361C144.728 25.0016 144.474 25.5107 144.429 26.0581C144.384 26.6055 144.552 27.1491 144.897 27.5763L144.893 27.5799L147.745 30.777L150.943 27.9265C151.368 27.5485 151.624 27.0176 151.657 26.4506C151.689 25.8835 151.495 25.3268 151.117 24.9028C150.739 24.4789 150.207 24.2224 149.64 24.1899C149.073 24.1574 148.516 24.3515 148.092 24.7295Z" fill="#D1D3D4"/>
<path d="M47.8733 58.1819C47.8066 58.0342 47.7725 57.874 47.7735 57.712C47.7744 57.55 47.8102 57.3901 47.8786 57.2432L50.2658 52.1134C50.5014 51.3188 51.0425 50.65 51.7705 50.2536C52.4986 49.8571 53.3543 49.7654 54.1499 49.9985C54.9455 50.2315 55.6162 50.7704 56.015 51.497C56.4138 52.2235 56.508 53.0785 56.2772 53.8744L55.4793 59.4941C55.4565 59.6545 55.3994 59.8081 55.3119 59.9444C55.2244 60.0807 55.1085 60.1966 54.9721 60.2841C54.8357 60.3717 54.6821 60.4288 54.5217 60.4516C54.3612 60.4745 54.1977 60.4625 54.0423 60.4165L48.581 58.7991C48.4255 58.7532 48.2818 58.6743 48.1597 58.5677C48.0376 58.4612 47.9399 58.3296 47.8733 58.1819Z" fill="#3F3D56"/>
<path d="M73.8426 55.6226L68.3812 57.2399C68.2258 57.2859 68.0623 57.298 67.9019 57.2751C67.7414 57.2523 67.5878 57.1952 67.4514 57.1076C67.315 57.0201 67.1991 56.9042 67.1116 56.7679C67.0241 56.6315 66.967 56.478 66.9442 56.3176L66.1463 50.6979C65.9155 49.902 66.0098 49.047 66.4085 48.3205C66.8073 47.5939 67.478 47.055 68.2736 46.8219C69.0693 46.5889 69.9249 46.6806 70.653 47.077C71.3811 47.4735 71.9222 48.1423 72.1577 48.9368L74.5449 54.0667C74.6132 54.2136 74.649 54.3735 74.65 54.5355C74.6509 54.6975 74.6168 54.8578 74.5502 55.0054C74.4835 55.1531 74.3858 55.2846 74.2637 55.3911C74.1416 55.4976 73.998 55.5766 73.8426 55.6226Z" fill="#3F3D56"/>
<path d="M52.3582 51.0414L56.6411 47.9281L63.6495 45.9823L69.4899 47.1498L69.8332 50.3755C70.2508 54.2991 70.0694 58.2634 69.2952 62.1326L69.153 65.1144L54.1103 65.6351L52.5529 62.9109C52.5529 62.9109 49.0487 59.4085 51.7742 55.5168L52.3582 51.0414Z" fill="#3F3D56"/>
<path d="M135.184 44.9081V48.3678L134.846 52.5945C134.846 52.5945 134.739 56.2854 134.609 59.1967C134.531 60.9665 134.444 62.4476 134.367 62.6389C134.273 62.8733 134.295 63.5127 134.349 64.1839C134.413 64.9603 134.519 65.7798 134.536 66.0541C134.57 66.5659 134.298 68.7645 134.298 68.7645C134.298 68.7645 133.995 74.2778 133.555 74.7178C133.115 75.1579 133.555 76.4094 133.555 76.4094C131.491 77.9304 128.884 76.0714 128.884 76.0714C129.46 75.1547 128.546 68.8968 128.546 68.8968C128.546 68.8968 128.412 66.7604 128.141 66.1864C127.87 65.6124 127.801 62.0267 127.801 62.0267V56.7159C127.801 56.7159 127.09 55.6286 126.989 55.1215C126.889 54.6145 126.989 52.8225 126.989 52.8225L126.246 50.3193L125.737 52.2804C125.737 52.2804 124.42 57.7602 124.182 58.4362C124.053 58.8881 124.101 59.3721 124.316 59.7898C124.316 59.7898 124.656 60.8325 124.316 61.3109C124.105 61.6105 123.943 61.9421 123.837 62.293C123.837 62.293 123.664 64.2891 123.359 65.0034C123.054 65.7177 122.785 66.5977 122.785 66.5977C122.785 66.5977 122.856 67.9466 122.552 68.2511C122.247 68.5556 122.147 70.0782 122.147 70.0782C122.147 70.0782 122.214 71.8017 121.807 72.4108C121.4 73.0198 121.4 76.47 121.4 76.47C120.695 76.9225 119.882 77.1796 119.044 77.2152C118.207 77.2508 117.375 77.0635 116.634 76.6725C116.634 76.6725 117.036 76.2962 116.731 74.5424C116.426 72.7886 116.95 68.0135 116.95 68.0135C116.95 68.0135 116.883 66.8018 117.221 66.2597C117.559 65.7177 117.05 64.6702 117.186 64.1966C117.321 63.7231 117.728 61.1514 117.728 61.1514C117.728 61.1514 117.559 54.8266 117.559 54.4886C117.519 53.8869 117.356 53.2998 117.08 52.7635C116.776 52.223 117.08 48.2993 117.08 48.2993C117.08 48.2993 117.798 46.2713 117.559 45.8312C117.32 45.3912 117.718 44.6131 117.718 44.6131C117.718 44.6131 117.347 43.6996 117.718 43.5306C118.09 43.3616 118.159 42.6855 118.159 42.6855L118.417 39.4044C118.417 39.4044 118.514 37.9152 118.824 37.8483C119.133 37.7813 118.998 37.2073 119.302 36.8008C119.451 36.5259 119.553 36.2286 119.606 35.9207C119.649 35.7325 119.688 35.5364 119.722 35.3483C119.818 34.8381 119.877 34.3981 119.877 34.3981C121.874 36.0562 132.375 34.8939 132.386 34.8939C133.053 35.039 133.845 37.3524 134.418 39.3693C134.927 41.1715 135.185 43.0354 135.184 44.9081Z" fill="#3F3D56"/>
<path d="M27.4238 130H33.2567C33.3432 129.843 33.4235 129.683 33.4979 129.52C34.1692 128.083 34.4526 126.48 34.724 124.909L35.1642 122.358C33.7572 123.38 32.3509 124.402 30.9453 125.424C30.487 125.757 30.0187 126.105 29.5785 126.48C28.6519 127.266 27.8519 128.174 27.5385 129.327C27.5224 129.391 27.5063 129.456 27.4942 129.52C27.4608 129.678 27.4373 129.839 27.4238 130Z" fill="#F0F0F0"/>
<path d="M26.6054 129.52C26.6051 129.53 26.6058 129.54 26.6074 129.55C26.6269 129.703 26.6633 129.854 26.7159 130H29.335C29.4173 129.846 29.4872 129.685 29.5439 129.52C29.6235 129.299 29.6807 129.071 29.7148 128.839C29.8018 128.051 29.7556 127.253 29.5782 126.48C29.5279 126.229 29.4736 125.976 29.4194 125.727L29.1098 124.305L27.5602 126.794C27.0416 127.627 26.5029 128.545 26.6054 129.52Z" fill="#F0F0F0"/>
<path d="M2.22258e-06 129.759C-0.000133467 129.79 0.00594505 129.822 0.0178916 129.851C0.0298382 129.88 0.0474211 129.907 0.0696308 129.929C0.0918405 129.951 0.118244 129.969 0.147335 129.981C0.176425 129.994 0.207632 130 0.239174 130H37.0814C37.1451 130 37.2062 129.975 37.2513 129.93C37.2963 129.885 37.3216 129.824 37.3216 129.76C37.3216 129.696 37.2963 129.635 37.2513 129.59C37.2062 129.545 37.1451 129.52 37.0814 129.52H0.239174C0.175784 129.52 0.115033 129.545 0.0702105 129.59C0.0253883 129.635 0.000144495 129.696 2.22258e-06 129.759Z" fill="#CACACA"/>
<path d="M60.5074 92.3724C64.4826 92.3724 67.7052 89.1515 67.7052 85.1782C67.7052 81.2049 64.4826 77.9839 60.5074 77.9839C56.5321 77.9839 53.3096 81.2049 53.3096 85.1782C53.3096 89.1515 56.5321 92.3724 60.5074 92.3724Z" fill="#FA8E3C"/>
<path d="M59.5257 88.9224C59.4014 88.9224 59.2788 88.8935 59.1676 88.8379C59.0565 88.7823 58.9598 88.7017 58.8852 88.6023L56.9215 85.9853C56.8583 85.9012 56.8122 85.8055 56.786 85.7036C56.7598 85.6018 56.7539 85.4957 56.7687 85.3916C56.7835 85.2875 56.8187 85.1873 56.8723 85.0967C56.9259 85.0062 56.9968 84.9271 57.081 84.864C57.1652 84.8009 57.261 84.755 57.363 84.7289C57.4649 84.7029 57.571 84.6972 57.6752 84.7121C57.7794 84.7271 57.8796 84.7624 57.9701 84.8161C58.0606 84.8698 58.1396 84.9408 58.2026 85.025L59.4873 86.737L62.7869 81.7901C62.8451 81.7023 62.92 81.6268 63.0074 81.568C63.0948 81.5092 63.1929 81.4682 63.2962 81.4474C63.3995 81.4266 63.5059 81.4264 63.6092 81.4467C63.7126 81.4671 63.8109 81.5076 63.8986 81.566C63.9863 81.6245 64.0615 81.6996 64.1201 81.7871C64.1786 81.8747 64.2193 81.9729 64.2398 82.0762C64.2603 82.1795 64.2602 82.2858 64.2396 82.3891C64.2189 82.4923 64.178 82.5905 64.1193 82.6779L60.1919 88.566C60.1209 88.6725 60.0253 88.7604 59.9133 88.8224C59.8012 88.8844 59.676 88.9186 59.5479 88.9222C59.5405 88.9223 59.5331 88.9224 59.5257 88.9224Z" fill="white"/>
<path d="M85.6871 106.921C87.1302 106.921 88.3001 105.752 88.3001 104.309C88.3001 102.867 87.1302 101.698 85.6871 101.698C84.2441 101.698 83.0742 102.867 83.0742 104.309C83.0742 105.752 84.2441 106.921 85.6871 106.921Z" fill="#F2F2F2"/>
<path d="M106.368 106.921C107.811 106.921 108.981 105.752 108.981 104.309C108.981 102.867 107.811 101.698 106.368 101.698C104.925 101.698 103.755 102.867 103.755 104.309C103.755 105.752 104.925 106.921 106.368 106.921Z" fill="#F2F2F2"/>
<path d="M95.3346 106.921C96.7777 106.921 97.9475 105.752 97.9475 104.309C97.9475 102.867 96.7777 101.698 95.3346 101.698C93.8915 101.698 92.7217 102.867 92.7217 104.309C92.7217 105.752 93.8915 106.921 95.3346 106.921Z" fill="#F2F2F2"/>
</g>
<defs>
<clipPath id="clip0_366_6324">
<rect width="165" height="130" fill="white"/>
</clipPath>
</defs>
</svg>
