<svg width="429" height="285" viewBox="0 0 429 285" fill="none" xmlns="http://www.w3.org/2000/svg">
<g clip-path="url(#clip0_249_5413)">
<path d="M217.328 80.1022C213.503 73.7727 208.97 67.0147 201.871 64.9479C193.651 62.5545 185.206 67.3092 178.043 72.001C156.622 86.0328 135.993 101.239 116.25 117.551L116.272 117.797C131.642 116.736 147.012 115.676 162.383 114.615C173.488 113.849 184.974 112.977 194.788 107.721C198.512 105.727 202.142 103.063 206.362 102.877C211.605 102.646 216.176 106.31 219.769 110.137C241.02 132.777 247.169 167.399 271.011 187.29C255.977 150.197 238.026 114.355 217.328 80.1022Z" fill="#F2F2F2"/>
<path d="M347.953 272.13C345.603 269.161 344.643 268.466 342.325 265.469C323.45 241.046 305.71 215.798 289.103 189.726C277.823 172.018 267.103 153.97 256.942 135.583C252.104 126.841 247.399 118.03 242.827 109.151C239.279 102.267 235.81 95.3411 232.421 88.3743C231.451 86.3844 230.509 84.3853 229.572 82.3817C227.364 77.6701 225.196 72.9355 222.869 68.2879C220.217 62.9907 216.989 57.4373 212.119 53.8784C209.903 52.1923 207.253 51.1721 204.479 50.937C200.515 50.6809 196.857 52.3185 193.419 54.1071C168.262 67.2312 144.71 83.6855 123.408 102.409C102.051 121.174 82.9614 142.374 66.5283 165.577C66.0256 166.295 64.8367 165.609 65.3441 164.886C67.3423 162.059 69.38 159.263 71.4574 156.497C97.2876 122.127 128.959 92.5713 165.025 69.1799C171.092 65.2459 177.274 61.4964 183.57 57.9313C186.743 56.1336 189.93 54.3587 193.172 52.6936C196.35 51.0605 199.724 49.5921 203.354 49.5372C215.709 49.3451 222.105 63.3429 226.499 72.7617C227.88 75.7259 229.278 78.681 230.692 81.627C236.037 92.8115 241.588 103.894 247.344 114.874C250.897 121.653 254.528 128.393 258.236 135.093C269.776 155.957 282.042 176.399 295.034 196.418C312.244 222.936 329.317 246.362 348.923 271.16C349.462 271.846 348.498 272.825 347.953 272.13Z" fill="#E4E4E4"/>
<path d="M122.187 95.4967C121.469 94.6961 120.756 93.8956 120.033 93.0951C114.336 86.7915 108.223 80.5611 100.4 76.9473C96.6698 75.1698 92.5977 74.2254 88.4662 74.1797C84.1958 74.1935 80.0213 75.3142 76.0755 76.8832C74.2099 77.6289 72.3855 78.4751 70.5887 79.3763C68.5356 80.4101 66.5192 81.5126 64.5121 82.6242C60.7444 84.7101 57.0256 86.8875 53.3557 89.1565C46.0537 93.6714 38.9803 98.531 32.1356 103.735C28.5874 106.434 25.1124 109.222 21.7107 112.097C18.5467 114.769 15.4467 117.512 12.4107 120.327C11.7614 120.926 10.792 119.956 11.4413 119.357C12.2414 118.611 13.0507 117.87 13.8601 117.138C16.1462 115.071 18.469 113.043 20.8283 111.054C25.1307 107.422 29.5445 103.93 34.0697 100.579C41.1065 95.364 48.3856 90.5029 55.9069 85.9955C59.6654 83.7449 63.4757 81.5888 67.3376 79.5273C68.5037 78.9051 69.6834 78.2967 70.8767 77.7203C73.5844 76.3539 76.3979 75.2081 79.2897 74.2941C83.3861 72.9683 87.7202 72.5423 91.9961 73.0453C96.1247 73.6461 100.102 75.0228 103.72 77.1028C111.401 81.3982 117.359 88.0403 123.156 94.5223C123.742 95.181 122.777 96.1553 122.187 95.4967Z" fill="#E4E4E4"/>
<path d="M279.576 160.819L297.983 154.083L307.122 150.739C310.098 149.65 313.067 148.41 316.144 147.63C318.818 146.866 321.657 146.902 324.311 147.734C326.677 148.61 328.843 149.954 330.68 151.685C332.557 153.414 334.304 155.279 335.905 157.267C337.895 159.659 339.855 162.076 341.824 164.486C349.951 174.429 358.025 184.416 366.045 194.446C374.066 204.476 382.033 214.548 389.946 224.663C397.879 234.803 405.757 244.985 413.58 255.209C414.538 256.462 415.496 257.715 416.453 258.969C416.981 259.661 418.173 258.979 417.637 258.276C409.756 247.949 401.82 237.664 393.829 227.421C385.818 217.154 377.752 206.93 369.631 196.75C361.509 186.57 353.333 176.434 345.102 166.342C343.052 163.828 340.998 161.317 338.94 158.808C337.205 156.692 335.489 154.553 333.586 152.584C330.092 148.968 325.726 145.773 320.501 145.687C317.429 145.636 314.455 146.611 311.601 147.644C308.524 148.758 305.454 149.893 302.381 151.017L283.845 157.8L279.212 159.495C278.389 159.796 278.744 161.123 279.576 160.819Z" fill="#E4E4E4"/>
<path d="M97.978 84.8791C88.6242 80.0695 76.6453 81.0115 68.0498 87.0204C84.4451 89.8503 100.661 93.6368 116.614 98.3605C109.99 94.4763 104.807 88.3908 97.978 84.8791Z" fill="#F2F2F2"/>
<path d="M67.958 87.0038L66.1572 88.4682C66.7663 87.9556 67.3995 87.4751 68.05 87.0204C68.0193 87.015 67.9887 87.0091 67.958 87.0038Z" fill="#F2F2F2"/>
<path d="M329.988 160.886C328.176 158.679 326.217 156.369 323.507 155.473L320.977 155.572C340.238 189.623 366.251 219.377 397.42 243.007C374.943 215.633 352.465 188.259 329.988 160.886Z" fill="#F2F2F2"/>
<path d="M172.646 142.683C173.817 146.939 176.455 150.644 180.093 153.141C181.5 154.099 183.164 155.018 183.645 156.651C183.898 157.692 183.742 158.791 183.21 159.72C182.678 160.638 182.03 161.483 181.284 162.236L181.216 162.491C177.725 160.422 174.404 157.804 172.476 154.232C170.548 150.661 170.279 145.979 172.646 142.683Z" fill="#FA8E3C"/>
<path d="M288.857 243.979C290.028 248.235 292.666 251.94 296.304 254.437C297.711 255.395 299.375 256.314 299.856 257.947C300.109 258.988 299.953 260.087 299.421 261.016C298.889 261.934 298.241 262.779 297.495 263.532L297.427 263.787C293.936 261.718 290.615 259.1 288.687 255.528C286.759 251.957 286.49 247.275 288.857 243.979Z" fill="#F2F2F2"/>
<path d="M56.9334 236.993C58.1044 241.249 60.7423 244.954 64.3805 247.451C65.7871 248.409 67.4513 249.328 67.9324 250.961C68.1856 252.002 68.0296 253.101 67.4967 254.03C66.9648 254.948 66.3176 255.793 65.5709 256.546L65.5027 256.801C62.0122 254.732 58.6914 252.114 56.7633 248.542C54.8352 244.971 54.566 240.29 56.9334 236.993Z" fill="#FA8E3C"/>
<path d="M323.82 50.8975C337.868 50.8975 349.256 39.5037 349.256 25.4487C349.256 11.3938 337.868 0 323.82 0C309.771 0 298.383 11.3938 298.383 25.4487C298.383 39.5037 309.771 50.8975 323.82 50.8975Z" fill="#FA8E3C"/>
<path d="M65.747 263.218V246.1L107.414 188.111H134.618L94.1445 246.1L81.6708 242.385H154.257V263.218H65.747ZM114.846 281V263.218L115.642 242.385V226.593H140.456V281H114.846ZM200.595 282.858C192.633 282.858 185.556 280.956 179.363 277.152C173.259 273.348 168.438 267.863 164.899 260.697C161.36 253.531 159.591 244.817 159.591 234.555C159.591 224.293 161.36 215.579 164.899 208.414C168.438 201.248 173.259 195.763 179.363 191.959C185.556 188.155 192.633 186.253 200.595 186.253C208.468 186.253 215.457 188.155 221.561 191.959C227.754 195.763 232.62 201.248 236.158 208.414C239.697 215.579 241.466 224.293 241.466 234.555C241.466 244.817 239.697 253.531 236.158 260.697C232.62 267.863 227.754 273.348 221.561 277.152C215.457 280.956 208.468 282.858 200.595 282.858ZM200.595 261.361C203.426 261.361 205.903 260.476 208.026 258.707C210.238 256.937 211.963 254.106 213.201 250.214C214.44 246.233 215.059 241.013 215.059 234.555C215.059 228.009 214.44 222.789 213.201 218.897C211.963 215.004 210.238 212.174 208.026 210.404C205.903 208.635 203.426 207.75 200.595 207.75C197.764 207.75 195.243 208.635 193.031 210.404C190.908 212.174 189.183 215.004 187.856 218.897C186.617 222.789 185.998 228.009 185.998 234.555C185.998 241.013 186.617 246.233 187.856 250.214C189.183 254.106 190.908 256.937 193.031 258.707C195.243 260.476 197.764 261.361 200.595 261.361ZM249.504 263.218V246.1L291.171 188.111H318.374L277.901 246.1L265.428 242.385H338.014V263.218H249.504ZM298.602 281V263.218L299.398 242.385V226.593H324.213V281H298.602Z" fill="#191919"/>
<path d="M369.724 5.92323C357.396 4.25612 343.322 10.9225 340.127 22.9507C339.321 20.8121 337.858 18.9849 335.946 17.7332C334.035 16.4815 331.776 15.87 329.495 15.9872C327.213 16.1043 325.028 16.9439 323.255 18.3848C321.482 19.8256 320.213 21.7931 319.631 24.0029L321.042 25.0142C347.46 30.7299 374.807 30.6062 401.173 24.6518C392.597 15.6355 382.052 7.59031 369.724 5.92323Z" fill="#F0F0F0"/>
<path d="M316.855 39.8549C304.527 38.1878 290.453 44.8541 287.258 56.8823C286.452 54.7437 284.988 52.9166 283.077 51.6649C281.166 50.4132 278.907 49.8017 276.625 49.9188C274.344 50.0359 272.159 50.8755 270.386 52.3164C268.613 53.7573 267.344 55.7247 266.762 57.9346L268.173 58.9459C294.591 64.6615 321.938 64.5378 348.303 58.5834C339.728 49.5671 329.182 41.522 316.855 39.8549Z" fill="#F0F0F0"/>
<path d="M424.451 46.271C424.4 46.2711 424.349 46.2632 424.3 46.2476C292.424 4.52252 176.194 9.97881 101.911 21.9035C91.802 23.5258 81.6658 25.3994 71.7841 27.4729C69.2614 28.0016 66.6441 28.5683 64.0051 29.1584C60.8535 29.8606 57.7438 30.5838 54.762 31.307C53.4742 31.612 52.2115 31.9195 50.974 32.2294C49.0995 32.6923 47.1975 33.1748 45.1586 33.7049C42.8804 34.2926 40.5655 34.9091 38.277 35.5372C38.2687 35.5401 38.2601 35.5426 38.2515 35.5445L38.2517 35.545C35.6668 36.2511 33.0956 36.9777 30.6091 37.7033C29.2633 38.0921 27.9638 38.4756 26.7191 38.8543C26.58 38.8927 26.4568 38.9298 26.3319 38.9678L26.0645 39.0492C25.9096 39.0964 25.7566 39.1427 25.6037 39.1866L25.594 39.1895L25.5942 39.19L25.1894 39.3158C24.7067 39.462 24.2357 39.6047 23.7725 39.747C11.5305 43.5226 4.80063 46.2086 4.73414 46.2349C4.67335 46.2593 4.60835 46.2715 4.54285 46.2707C4.47736 46.27 4.41265 46.2563 4.35243 46.2305C4.29221 46.2048 4.23765 46.1674 4.19186 46.1205C4.14608 46.0737 4.10998 46.0182 4.08561 45.9574C4.06124 45.8966 4.04909 45.8315 4.04984 45.766C4.05059 45.7005 4.06423 45.6358 4.08999 45.5755C4.11575 45.5153 4.15311 45.4607 4.19995 45.4149C4.2468 45.3691 4.3022 45.3329 4.36299 45.3086C4.42997 45.2822 11.1927 42.5826 23.4793 38.7929C23.9442 38.6501 24.4165 38.5073 24.9006 38.3606L25.2766 38.2437C25.2895 38.2388 25.3024 38.2349 25.3156 38.231C25.4678 38.1877 25.6198 38.1414 25.7742 38.0946L26.0421 38.0132C26.1755 37.9728 26.307 37.9328 26.4417 37.8958C27.6779 37.5196 28.9818 37.1351 30.331 36.7448C32.8184 36.0187 35.3921 35.2921 37.979 34.585C37.987 34.5821 37.9953 34.5802 38.0033 34.5777C40.2999 33.9477 42.6232 33.3283 44.9088 32.7387C46.9508 32.208 48.8565 31.7246 50.7341 31.2607C51.9769 30.9512 53.242 30.6431 54.5294 30.3363C57.5147 29.6121 60.6307 28.888 63.7879 28.1844C66.431 27.5937 69.0527 27.0256 71.5796 26.4964C81.4766 24.4195 91.6286 22.5429 101.753 20.9182C176.143 8.97645 292.539 3.51136 424.601 45.2963C424.714 45.3322 424.811 45.4075 424.874 45.5087C424.937 45.6099 424.962 45.7303 424.944 45.848C424.925 45.9658 424.866 46.0731 424.775 46.1507C424.685 46.2283 424.57 46.2709 424.451 46.271Z" fill="#CCCCCC"/>
<path d="M222.132 251.563C220.67 258.09 217.167 263.98 212.132 268.38C211.763 268.699 211.394 269.008 211.01 269.313C210.077 269.397 209.151 269.484 208.232 269.572C207.469 269.642 206.716 269.717 205.967 269.787L205.833 269.802L205.738 268.983L205.359 265.67C203.888 263.268 202.977 260.566 202.692 257.764C202.407 254.962 202.756 252.131 203.713 249.483C205.03 245.93 207.414 242.791 209.758 239.677C212.995 235.376 216.142 231.125 216.257 225.88C217.85 227.919 219.174 230.155 220.197 232.532C219.232 232.986 218.364 233.625 217.643 234.413C217.439 234.637 217.234 234.952 217.374 235.221C217.494 235.451 217.793 235.506 218.052 235.536C218.676 235.601 219.304 235.665 219.928 235.73C220.426 235.785 220.925 235.835 221.424 235.89C222.027 237.871 222.437 239.907 222.646 241.968C222.982 245.173 222.809 248.412 222.132 251.563Z" fill="#191919"/>
<path d="M238.691 238.485C235.749 240.625 234.028 243.704 232.691 247.097C231.321 247.536 230.089 248.324 229.115 249.383C228.911 249.607 228.706 249.922 228.846 250.191C228.965 250.421 229.265 250.476 229.524 250.505C230.148 250.57 230.776 250.635 231.399 250.7C230.063 254.712 228.836 258.864 226.472 262.252C224.899 264.489 222.85 266.348 220.472 267.696C219.823 268.066 219.154 268.397 218.467 268.689C215.933 268.883 213.447 269.091 211.01 269.313C210.077 269.397 209.151 269.484 208.232 269.572C207.469 269.642 206.716 269.717 205.968 269.787C205.963 269.512 205.963 269.238 205.968 268.963C206.125 261.652 208.814 254.623 213.574 249.073C213.798 248.814 214.028 248.559 214.262 248.305C216.674 245.728 219.509 243.584 222.646 241.968C227.589 239.397 233.128 238.194 238.691 238.485Z" fill="#D2DAD7"/>
<path d="M209.095 267.012L208.521 268.709L208.232 269.572C207.469 269.642 206.716 269.717 205.967 269.787L205.833 269.802C205.005 269.886 204.182 269.971 203.359 270.056C203.144 269.807 202.93 269.552 202.72 269.293C197.514 262.985 195.015 254.873 195.77 246.728C196.524 238.583 200.47 231.068 206.745 225.825C206.087 229.273 206.855 232.577 208.117 235.855C207.982 235.91 207.853 235.965 207.728 236.025C206.763 236.479 205.895 237.118 205.174 237.906C204.97 238.13 204.765 238.445 204.905 238.714C205.025 238.944 205.324 238.999 205.583 239.029C206.207 239.093 206.835 239.158 207.459 239.223C207.957 239.278 208.456 239.328 208.955 239.383C209.189 239.408 209.424 239.433 209.658 239.458C209.693 239.533 209.723 239.602 209.758 239.677C211.179 242.761 212.711 245.86 213.573 249.073C213.79 249.88 213.96 250.698 214.082 251.523C214.466 254.314 214.217 257.156 213.354 259.837C212.491 262.518 211.035 264.971 209.095 267.012Z" fill="#D2DAD7"/>
<path d="M215.713 255.713C215.326 255.731 214.944 255.629 214.618 255.422C214.291 255.215 214.036 254.913 213.887 254.556C213.738 254.2 213.702 253.806 213.784 253.428C213.866 253.05 214.062 252.706 214.346 252.444C214.394 252.255 214.428 252.119 214.475 251.93C214.458 251.889 214.441 251.848 214.424 251.807C212.689 247.666 201.613 259.208 201.135 263.1C200.924 264.82 201.013 266.563 201.398 268.253C197.81 260.424 195.947 251.915 195.935 243.302C195.935 241.141 196.055 238.981 196.295 236.833C196.493 235.073 196.769 233.324 197.121 231.589C199.044 222.171 203.172 213.344 209.167 205.832C212.595 206.024 215.6 205.501 215.89 198.854C215.942 197.671 216.818 196.647 217.012 195.482C216.684 195.525 216.352 195.552 216.024 195.574C215.922 195.579 215.815 195.584 215.713 195.59L215.675 195.592C215.315 195.608 214.958 195.519 214.647 195.338C214.337 195.156 214.085 194.888 213.923 194.566C213.761 194.244 213.695 193.883 213.734 193.524C213.772 193.166 213.914 192.827 214.141 192.547C214.282 192.373 214.423 192.199 214.565 192.025C214.779 191.757 214.999 191.494 215.214 191.226C215.239 191.2 215.262 191.173 215.284 191.145C215.531 190.839 215.777 190.538 216.024 190.232C215.574 189.533 214.968 188.947 214.254 188.52C211.78 187.071 208.368 188.074 206.581 190.313C204.789 192.551 204.451 195.692 205.073 198.489C205.685 200.868 206.698 203.127 208.067 205.167C207.933 205.338 207.793 205.505 207.659 205.677C205.207 208.831 203.07 212.219 201.278 215.79C201.785 211.829 195.587 197.523 193.19 194.493C190.31 190.853 184.406 192.442 183.899 197.056C183.894 197.1 183.889 197.145 183.884 197.19C184.24 197.391 184.589 197.604 184.93 197.829C185.358 198.116 185.69 198.525 185.882 199.003C186.074 199.482 186.117 200.007 186.006 200.51C185.894 201.013 185.634 201.471 185.258 201.824C184.882 202.176 184.408 202.407 183.899 202.485L183.847 202.493C179.081 209.301 194.359 227.021 198.184 223.043C196.384 228.146 195.254 233.462 194.825 238.857C194.581 242.04 194.596 245.237 194.868 248.418L194.851 248.305C194.002 241.378 179.424 231.078 175.167 231.936C172.715 232.431 170.3 232.318 170.672 234.793C170.678 234.833 170.684 234.872 170.69 234.912C171.351 235.181 171.994 235.491 172.616 235.84C172.972 236.041 173.321 236.255 173.662 236.48C174.09 236.766 174.422 237.176 174.614 237.654C174.806 238.132 174.849 238.658 174.738 239.161C174.626 239.664 174.366 240.122 173.99 240.474C173.614 240.827 173.14 241.057 172.631 241.136L172.579 241.144C172.541 241.149 172.509 241.155 172.471 241.16C170.302 248.628 186.391 260.681 196.171 256.846H196.177C197.146 261.06 198.55 265.162 200.367 269.085H215.337C215.391 268.919 215.439 268.747 215.488 268.581C214.102 268.668 212.711 268.585 211.345 268.334C212.456 266.97 213.567 265.596 214.677 264.232C214.702 264.207 214.726 264.18 214.747 264.152C215.311 263.454 215.879 262.762 216.443 262.064L216.443 262.063C216.473 259.924 216.228 257.79 215.713 255.713L215.713 255.713ZM198.57 221.974L198.578 221.964L198.57 221.985V221.974ZM195.254 251.88L195.125 251.59C195.131 251.381 195.131 251.172 195.125 250.957C195.125 250.898 195.114 250.839 195.114 250.78C195.163 251.15 195.206 251.521 195.259 251.891L195.254 251.88Z" fill="#FA8E3C"/>
<path d="M428.406 284.847L0.593862 285C0.515874 285 0.438648 284.985 0.366597 284.955C0.294546 284.925 0.229083 284.881 0.173938 284.826C0.118792 284.771 0.0750432 284.705 0.0451987 284.633C0.0153542 284.561 0 284.484 0 284.406C0 284.328 0.0153542 284.251 0.0451987 284.178C0.0750432 284.106 0.118792 284.041 0.173938 283.986C0.229083 283.931 0.294546 283.887 0.366597 283.857C0.438648 283.827 0.515874 283.812 0.593862 283.812L428.406 283.658C428.563 283.659 428.714 283.722 428.825 283.833C428.936 283.944 428.998 284.095 428.998 284.252C428.998 284.41 428.936 284.561 428.825 284.672C428.714 284.783 428.563 284.846 428.406 284.847Z" fill="#CACACA"/>
</g>
<defs>
<clipPath id="clip0_249_5413">
<rect width="429" height="285" fill="white"/>
</clipPath>
</defs>
</svg>
