<svg width="258" height="260" viewBox="0 0 258 260" fill="none" xmlns="http://www.w3.org/2000/svg">
<rect width="258" height="260" rx="9" fill="white"/>
<path d="M54.7612 139V127.64H50.2812V125H62.4812V127.64H58.0012V139H54.7612ZM64.0045 139V128.24H67.1245V139H64.0045ZM65.5645 126.74C64.9911 126.74 64.5245 126.573 64.1645 126.24C63.8045 125.907 63.6245 125.493 63.6245 125C63.6245 124.507 63.8045 124.093 64.1645 123.76C64.5245 123.427 64.9911 123.26 65.5645 123.26C66.1378 123.26 66.6045 123.42 66.9645 123.74C67.3245 124.047 67.5045 124.447 67.5045 124.94C67.5045 125.46 67.3245 125.893 66.9645 126.24C66.6178 126.573 66.1511 126.74 65.5645 126.74ZM74.6401 139.16C73.6267 139.16 72.7134 138.933 71.9001 138.48C71.0867 138.013 70.4401 137.367 69.9601 136.54C69.4934 135.713 69.2601 134.74 69.2601 133.62C69.2601 132.487 69.4934 131.507 69.9601 130.68C70.4401 129.853 71.0867 129.213 71.9001 128.76C72.7134 128.307 73.6267 128.08 74.6401 128.08C75.5467 128.08 76.3401 128.28 77.0201 128.68C77.7001 129.08 78.2267 129.687 78.6001 130.5C78.9734 131.313 79.1601 132.353 79.1601 133.62C79.1601 134.873 78.9801 135.913 78.6201 136.74C78.2601 137.553 77.7401 138.16 77.0601 138.56C76.3934 138.96 75.5867 139.16 74.6401 139.16ZM75.1801 136.6C75.6867 136.6 76.1467 136.48 76.5601 136.24C76.9734 136 77.3001 135.66 77.5401 135.22C77.7934 134.767 77.9201 134.233 77.9201 133.62C77.9201 132.993 77.7934 132.46 77.5401 132.02C77.3001 131.58 76.9734 131.24 76.5601 131C76.1467 130.76 75.6867 130.64 75.1801 130.64C74.6601 130.64 74.1934 130.76 73.7801 131C73.3667 131.24 73.0334 131.58 72.7801 132.02C72.5401 132.46 72.4201 132.993 72.4201 133.62C72.4201 134.233 72.5401 134.767 72.7801 135.22C73.0334 135.66 73.3667 136 73.7801 136.24C74.1934 136.48 74.6601 136.6 75.1801 136.6ZM78.0001 139V136.8L78.0601 133.6L77.8601 130.42V124.16H80.9801V139H78.0001ZM90.4677 139V136.9L90.2677 136.44V132.68C90.2677 132.013 90.0611 131.493 89.6477 131.12C89.2477 130.747 88.6277 130.56 87.7877 130.56C87.2144 130.56 86.6477 130.653 86.0877 130.84C85.5411 131.013 85.0744 131.253 84.6877 131.56L83.5677 129.38C84.1544 128.967 84.8611 128.647 85.6877 128.42C86.5144 128.193 87.3544 128.08 88.2077 128.08C89.8477 128.08 91.1211 128.467 92.0277 129.24C92.9344 130.013 93.3877 131.22 93.3877 132.86V139H90.4677ZM87.1877 139.16C86.3477 139.16 85.6277 139.02 85.0277 138.74C84.4277 138.447 83.9677 138.053 83.6477 137.56C83.3277 137.067 83.1677 136.513 83.1677 135.9C83.1677 135.26 83.3211 134.7 83.6277 134.22C83.9477 133.74 84.4477 133.367 85.1277 133.1C85.8077 132.82 86.6944 132.68 87.7877 132.68H90.6477V134.5H88.1277C87.3944 134.5 86.8877 134.62 86.6077 134.86C86.3411 135.1 86.2077 135.4 86.2077 135.76C86.2077 136.16 86.3611 136.48 86.6677 136.72C86.9877 136.947 87.4211 137.06 87.9677 137.06C88.4877 137.06 88.9544 136.94 89.3677 136.7C89.7811 136.447 90.0811 136.08 90.2677 135.6L90.7477 137.04C90.5211 137.733 90.1077 138.26 89.5077 138.62C88.9077 138.98 88.1344 139.16 87.1877 139.16ZM98.7915 136.8L98.8715 133L103.891 128.24H107.611L102.791 133.14L101.171 134.46L98.7915 136.8ZM96.2115 139V124.16H99.3315V139H96.2115ZM104.231 139L100.591 134.48L102.551 132.06L108.011 139H104.231ZM113.459 139L119.699 125H122.899L129.159 139H125.759L120.639 126.64H121.919L116.779 139H113.459ZM116.579 136L117.439 133.54H124.639L125.519 136H116.579ZM134.914 139.16C133.9 139.16 132.987 138.933 132.174 138.48C131.36 138.013 130.714 137.367 130.234 136.54C129.767 135.713 129.534 134.74 129.534 133.62C129.534 132.487 129.767 131.507 130.234 130.68C130.714 129.853 131.36 129.213 132.174 128.76C132.987 128.307 133.9 128.08 134.914 128.08C135.82 128.08 136.614 128.28 137.294 128.68C137.974 129.08 138.5 129.687 138.874 130.5C139.247 131.313 139.434 132.353 139.434 133.62C139.434 134.873 139.254 135.913 138.894 136.74C138.534 137.553 138.014 138.16 137.334 138.56C136.667 138.96 135.86 139.16 134.914 139.16ZM135.454 136.6C135.96 136.6 136.42 136.48 136.834 136.24C137.247 136 137.574 135.66 137.814 135.22C138.067 134.767 138.194 134.233 138.194 133.62C138.194 132.993 138.067 132.46 137.814 132.02C137.574 131.58 137.247 131.24 136.834 131C136.42 130.76 135.96 130.64 135.454 130.64C134.934 130.64 134.467 130.76 134.054 131C133.64 131.24 133.307 131.58 133.054 132.02C132.814 132.46 132.694 132.993 132.694 133.62C132.694 134.233 132.814 134.767 133.054 135.22C133.307 135.66 133.64 136 134.054 136.24C134.467 136.48 134.934 136.6 135.454 136.6ZM138.274 139V136.8L138.334 133.6L138.134 130.42V124.16H141.254V139H138.274ZM150.741 139V136.9L150.541 136.44V132.68C150.541 132.013 150.335 131.493 149.921 131.12C149.521 130.747 148.901 130.56 148.061 130.56C147.488 130.56 146.921 130.653 146.361 130.84C145.815 131.013 145.348 131.253 144.961 131.56L143.841 129.38C144.428 128.967 145.135 128.647 145.961 128.42C146.788 128.193 147.628 128.08 148.481 128.08C150.121 128.08 151.395 128.467 152.301 129.24C153.208 130.013 153.661 131.22 153.661 132.86V139H150.741ZM147.461 139.16C146.621 139.16 145.901 139.02 145.301 138.74C144.701 138.447 144.241 138.053 143.921 137.56C143.601 137.067 143.441 136.513 143.441 135.9C143.441 135.26 143.595 134.7 143.901 134.22C144.221 133.74 144.721 133.367 145.401 133.1C146.081 132.82 146.968 132.68 148.061 132.68H150.921V134.5H148.401C147.668 134.5 147.161 134.62 146.881 134.86C146.615 135.1 146.481 135.4 146.481 135.76C146.481 136.16 146.635 136.48 146.941 136.72C147.261 136.947 147.695 137.06 148.241 137.06C148.761 137.06 149.228 136.94 149.641 136.7C150.055 136.447 150.355 136.08 150.541 135.6L151.021 137.04C150.795 137.733 150.381 138.26 149.781 138.62C149.181 138.98 148.408 139.16 147.461 139.16ZM165.369 131.3H172.089V133.9H165.369V131.3ZM165.609 139H162.369V125H172.949V127.6H165.609V139ZM179.789 139.16C178.642 139.16 177.622 138.92 176.729 138.44C175.849 137.96 175.149 137.307 174.629 136.48C174.122 135.64 173.869 134.687 173.869 133.62C173.869 132.54 174.122 131.587 174.629 130.76C175.149 129.92 175.849 129.267 176.729 128.8C177.622 128.32 178.642 128.08 179.789 128.08C180.922 128.08 181.935 128.32 182.829 128.8C183.722 129.267 184.422 129.913 184.929 130.74C185.435 131.567 185.689 132.527 185.689 133.62C185.689 134.687 185.435 135.64 184.929 136.48C184.422 137.307 183.722 137.96 182.829 138.44C181.935 138.92 180.922 139.16 179.789 139.16ZM179.789 136.6C180.309 136.6 180.775 136.48 181.189 136.24C181.602 136 181.929 135.66 182.169 135.22C182.409 134.767 182.529 134.233 182.529 133.62C182.529 132.993 182.409 132.46 182.169 132.02C181.929 131.58 181.602 131.24 181.189 131C180.775 130.76 180.309 130.64 179.789 130.64C179.269 130.64 178.802 130.76 178.389 131C177.975 131.24 177.642 131.58 177.389 132.02C177.149 132.46 177.029 132.993 177.029 133.62C177.029 134.233 177.149 134.767 177.389 135.22C177.642 135.66 177.975 136 178.389 136.24C178.802 136.48 179.269 136.6 179.789 136.6ZM192.174 139.16C190.907 139.16 189.921 138.84 189.214 138.2C188.507 137.547 188.154 136.58 188.154 135.3V125.86H191.274V135.26C191.274 135.713 191.394 136.067 191.634 136.32C191.874 136.56 192.201 136.68 192.614 136.68C193.107 136.68 193.527 136.547 193.874 136.28L194.714 138.48C194.394 138.707 194.007 138.88 193.554 139C193.114 139.107 192.654 139.16 192.174 139.16ZM186.494 130.88V128.48H193.954V130.88H186.494ZM201.253 139.16C200.107 139.16 199.087 138.92 198.193 138.44C197.313 137.96 196.613 137.307 196.093 136.48C195.587 135.64 195.333 134.687 195.333 133.62C195.333 132.54 195.587 131.587 196.093 130.76C196.613 129.92 197.313 129.267 198.193 128.8C199.087 128.32 200.107 128.08 201.253 128.08C202.387 128.08 203.4 128.32 204.293 128.8C205.187 129.267 205.887 129.913 206.393 130.74C206.9 131.567 207.153 132.527 207.153 133.62C207.153 134.687 206.9 135.64 206.393 136.48C205.887 137.307 205.187 137.96 204.293 138.44C203.4 138.92 202.387 139.16 201.253 139.16ZM201.253 136.6C201.773 136.6 202.24 136.48 202.653 136.24C203.067 136 203.393 135.66 203.633 135.22C203.873 134.767 203.993 134.233 203.993 133.62C203.993 132.993 203.873 132.46 203.633 132.02C203.393 131.58 203.067 131.24 202.653 131C202.24 130.76 201.773 130.64 201.253 130.64C200.733 130.64 200.267 130.76 199.853 131C199.44 131.24 199.107 131.58 198.853 132.02C198.613 132.46 198.493 132.993 198.493 133.62C198.493 134.233 198.613 134.767 198.853 135.22C199.107 135.66 199.44 136 199.853 136.24C200.267 136.48 200.733 136.6 201.253 136.6Z" fill="#858585"/>
</svg>
