<svg width="153" height="44" viewBox="0 0 153 44" fill="none" xmlns="http://www.w3.org/2000/svg">
<path d="M9.50859 33L5.06589 26.7883V33H1.12575V18.8276H5.06589V24.9388L9.46838 18.8276H14.0116L8.80499 25.7027L14.2729 33H9.50859ZM18.848 21.9837V24.2955H23.3711V27.2908H18.848V29.8439H23.9742V33H14.9079V18.8276H23.9742V21.9837H18.848ZM30.7258 18.8276C32.2134 18.8276 33.5133 19.1291 34.6257 19.7322C35.7514 20.3219 36.6159 21.1528 37.2189 22.2249C37.822 23.2971 38.1236 24.5234 38.1236 25.9037C38.1236 27.2707 37.8153 28.4903 37.1988 29.5624C36.5958 30.6346 35.7313 31.4789 34.6056 32.0954C33.4932 32.6985 32.2 33 30.7258 33H25.1171V18.8276H30.7258ZM30.4242 29.5222C31.5768 29.5222 32.4814 29.2073 33.1381 28.5774C33.7948 27.9475 34.1231 27.0563 34.1231 25.9037C34.1231 24.7378 33.7948 23.8399 33.1381 23.21C32.4814 22.5667 31.5768 22.245 30.4242 22.245H29.0572V29.5222H30.4242ZM42.9553 18.8276V27.0496C42.9553 27.8135 43.1295 28.4032 43.478 28.8186C43.8398 29.2341 44.3826 29.4418 45.1063 29.4418C45.83 29.4418 46.3727 29.2341 46.7346 28.8186C47.1098 28.3898 47.2975 27.8001 47.2975 27.0496V18.8276H51.2376V27.0496C51.2376 28.3496 50.9629 29.4619 50.4134 30.3866C49.8639 31.298 49.1134 31.9882 48.1619 32.4572C47.2238 32.9129 46.1784 33.1407 45.0259 33.1407C43.8733 33.1407 42.8414 32.9129 41.93 32.4572C41.0321 31.9882 40.3218 31.298 39.7992 30.3866C39.2899 29.4753 39.0353 28.363 39.0353 27.0496V18.8276H42.9553ZM65.7299 33H61.7898L56.543 25.0795V33H52.6029V18.8276H56.543L61.7898 26.8486V18.8276H65.7299V33ZM76.2165 23.4914C75.9887 23.1162 75.6737 22.828 75.2717 22.627C74.883 22.426 74.4207 22.3255 73.8846 22.3255C72.8929 22.3255 72.1088 22.6471 71.5326 23.2904C70.9697 23.9337 70.6883 24.7981 70.6883 25.8836C70.6883 27.1032 70.9898 28.0346 71.5929 28.6779C72.2094 29.3078 73.1006 29.6227 74.2665 29.6227C75.6469 29.6227 76.632 28.9996 77.2216 27.7532H73.2614V24.9187H80.619V28.7382C80.3108 29.4887 79.8551 30.1923 79.252 30.849C78.6623 31.5057 77.9118 32.0485 77.0005 32.4773C76.0892 32.8928 75.0505 33.1005 73.8846 33.1005C72.464 33.1005 71.2042 32.799 70.1053 32.1959C69.0197 31.5794 68.1754 30.7284 67.5723 29.6428C66.9827 28.5439 66.6878 27.2908 66.6878 25.8836C66.6878 24.4898 66.9827 23.2502 67.5723 22.1646C68.1754 21.0657 69.0197 20.2147 70.1053 19.6116C71.1908 18.9951 72.4439 18.6869 73.8645 18.6869C75.6469 18.6869 77.1211 19.1157 78.2871 19.9734C79.453 20.8311 80.1767 22.0038 80.4582 23.4914H76.2165ZM101.543 18.8276L98.0649 33H93.2201L91.2701 24.3156L89.28 33H84.4352L80.9977 18.8276H85.2594L86.9079 28.5171L89.1393 18.8276H93.4613L95.6324 28.4367L97.2809 18.8276H101.543ZM106.27 18.8276V27.0496C106.27 27.8135 106.444 28.4032 106.793 28.8186C107.155 29.2341 107.698 29.4418 108.421 29.4418C109.145 29.4418 109.688 29.2341 110.05 28.8186C110.425 28.3898 110.612 27.8001 110.612 27.0496V18.8276H114.553V27.0496C114.553 28.3496 114.278 29.4619 113.728 30.3866C113.179 31.298 112.428 31.9882 111.477 32.4572C110.539 32.9129 109.493 33.1407 108.341 33.1407C107.188 33.1407 106.156 32.9129 105.245 32.4572C104.347 31.9882 103.637 31.298 103.114 30.3866C102.605 29.4753 102.35 28.363 102.35 27.0496V18.8276H106.27ZM119.858 29.9846H124.26V33H115.918V18.8276H119.858V29.9846ZM128.848 18.8276V27.0496C128.848 27.8135 129.022 28.4032 129.371 28.8186C129.733 29.2341 130.275 29.4418 130.999 29.4418C131.723 29.4418 132.266 29.2341 132.627 28.8186C133.003 28.3898 133.19 27.8001 133.19 27.0496V18.8276H137.13V27.0496C137.13 28.3496 136.856 29.4619 136.306 30.3866C135.757 31.298 135.006 31.9882 134.055 32.4572C133.117 32.9129 132.071 33.1407 130.919 33.1407C129.766 33.1407 128.734 32.9129 127.823 32.4572C126.925 31.9882 126.215 31.298 125.692 30.3866C125.183 29.4753 124.928 28.363 124.928 27.0496V18.8276H128.848ZM151.181 18.8276V33H147.24V27.3109H142.436V33H138.496V18.8276H142.436V24.1548H147.24V18.8276H151.181Z" fill="black"/>
<path d="M10.0462 5.95377V10.4568C10.0462 11.0733 9.92561 11.6562 9.68438 12.2057C9.45655 12.7552 9.1349 13.2377 8.71945 13.6531C8.30399 14.0686 7.82153 14.3969 7.27205 14.6382C6.73598 14.866 6.153 14.9799 5.52311 14.9799C4.90663 14.9799 4.32365 14.866 3.77418 14.6382C3.2247 14.3969 2.74224 14.0686 2.32678 13.6531C1.92473 13.2377 1.60308 12.7552 1.36185 12.2057C1.13402 11.6562 1.0201 11.0733 1.0201 10.4568V5.95377H2.80925V10.4568C2.80925 10.832 2.87625 11.1872 3.01027 11.5222C3.15769 11.8573 3.35202 12.1521 3.59325 12.4067C3.84789 12.648 4.13603 12.8423 4.45767 12.9897C4.79271 13.1237 5.14786 13.1908 5.52311 13.1908C5.89836 13.1908 6.25351 13.1237 6.58856 12.9897C6.9236 12.8423 7.21174 12.648 7.45298 12.4067C7.70761 12.1521 7.90194 11.8573 8.03595 11.5222C8.18337 11.1872 8.25708 10.832 8.25708 10.4568V5.95377H10.0462ZM22.2805 5.95377C22.9103 5.95377 23.4933 6.07439 24.0294 6.31562C24.5789 6.54345 25.0613 6.8651 25.4768 7.28055C25.8923 7.68261 26.2139 8.15837 26.4417 8.70785C26.683 9.24392 26.8036 9.8269 26.8036 10.4568V14.9799H25.0144V10.4568C25.0144 10.0815 24.9407 9.73309 24.7933 9.41144C24.6593 9.0764 24.465 8.78826 24.2103 8.54702C23.9691 8.29239 23.681 8.09806 23.3459 7.96405C23.0109 7.81663 22.6557 7.74292 22.2805 7.74292C21.9052 7.74292 21.5501 7.81663 21.215 7.96405C20.8934 8.09806 20.6052 8.29239 20.3506 8.54702C20.1094 8.78826 19.915 9.0764 19.7676 9.41144C19.6336 9.73309 19.5666 10.0815 19.5666 10.4568V14.9799H17.7775V10.4568C17.7775 10.0815 17.7037 9.73309 17.5563 9.41144C17.4223 9.0764 17.228 8.78826 16.9733 8.54702C16.7321 8.29239 16.444 8.09806 16.1089 7.96405C15.7739 7.81663 15.4187 7.74292 15.0435 7.74292C14.6682 7.74292 14.3131 7.81663 13.978 7.96405C13.6564 8.09806 13.3683 8.29239 13.1136 8.54702C12.8724 8.78826 12.6781 9.0764 12.5306 9.41144C12.3966 9.73309 12.3296 10.0815 12.3296 10.4568V14.9799H10.5405V10.4568C10.5405 9.8269 10.6544 9.24392 10.8822 8.70785C11.1234 8.15837 11.4451 7.68261 11.8471 7.28055C12.2626 6.8651 12.7451 6.54345 13.2945 6.31562C13.844 6.07439 14.427 5.95377 15.0435 5.95377C15.794 5.95377 16.4775 6.1213 17.094 6.45634C17.7238 6.77798 18.2465 7.22024 18.662 7.78312C19.0774 7.22024 19.6001 6.77798 20.23 6.45634C20.8599 6.1213 21.5434 5.95377 22.2805 5.95377ZM36.4698 6.83829C36.4698 7.58879 36.3023 8.27899 35.9673 8.90887C35.6456 9.52536 35.2034 10.0413 34.6405 10.4568C35.2034 10.8722 35.6456 11.3949 35.9673 12.0248C36.3023 12.6547 36.4698 13.3382 36.4698 14.0753V14.9799H34.6807V14.0753C34.6807 13.7 34.607 13.3516 34.4596 13.0299C34.3256 12.6949 34.1312 12.4067 33.8766 12.1655C33.6354 11.9109 33.3472 11.7166 33.0122 11.5825C32.6905 11.4351 32.3421 11.3614 31.9668 11.3614C31.5916 11.3614 31.2364 11.4351 30.9014 11.5825C30.5663 11.7166 30.2715 11.9109 30.0169 12.1655C29.7756 12.4067 29.5813 12.6949 29.4339 13.0299C29.2999 13.3516 29.2329 13.7 29.2329 14.0753V14.9799H27.4437V14.0753V2.33528H29.2329V10.497C29.6215 10.2021 30.0437 9.97432 30.4993 9.8135C30.9684 9.65267 31.4576 9.57226 31.9668 9.57226C32.3421 9.57226 32.6905 9.50525 33.0122 9.37124C33.3472 9.22382 33.6354 9.02949 33.8766 8.78826C34.1312 8.53362 34.3256 8.23878 34.4596 7.90374C34.607 7.56869 34.6807 7.21354 34.6807 6.83829V5.95377H36.4698V6.83829ZM48.7831 5.95377C49.413 5.95377 49.9959 6.07439 50.532 6.31562C51.0815 6.54345 51.564 6.8651 51.9794 7.28055C52.3949 7.68261 52.7165 8.15837 52.9443 8.70785C53.1856 9.24392 53.3062 9.8269 53.3062 10.4568V14.9799H51.5171V10.4568C51.5171 10.0815 51.4433 9.73309 51.2959 9.41144C51.1619 9.0764 50.9676 8.78826 50.7129 8.54702C50.4717 8.29239 50.1836 8.09806 49.8485 7.96405C49.5135 7.81663 49.1583 7.74292 48.7831 7.74292C48.4078 7.74292 48.0527 7.81663 47.7176 7.96405C47.396 8.09806 47.1079 8.29239 46.8532 8.54702C46.612 8.78826 46.4177 9.0764 46.2702 9.41144C46.1362 9.73309 46.0692 10.0815 46.0692 10.4568V14.9799H44.2801V10.4568C44.2801 10.0815 44.2064 9.73309 44.0589 9.41144C43.9249 9.0764 43.7306 8.78826 43.476 8.54702C43.2347 8.29239 42.9466 8.09806 42.6115 7.96405C42.2765 7.81663 41.9213 7.74292 41.5461 7.74292C41.1708 7.74292 40.8157 7.81663 40.4807 7.96405C40.159 8.09806 39.8709 8.29239 39.6162 8.54702C39.375 8.78826 39.1807 9.0764 39.0333 9.41144C38.8992 9.73309 38.8322 10.0815 38.8322 10.4568V14.9799H37.0431V10.4568C37.0431 9.8269 37.157 9.24392 37.3848 8.70785C37.6261 8.15837 37.9477 7.68261 38.3498 7.28055C38.7652 6.8651 39.2477 6.54345 39.7972 6.31562C40.3466 6.07439 40.9296 5.95377 41.5461 5.95377C42.2966 5.95377 42.9801 6.1213 43.5966 6.45634C44.2265 6.77798 44.7491 7.22024 45.1646 7.78312C45.58 7.22024 46.1027 6.77798 46.7326 6.45634C47.3625 6.1213 48.046 5.95377 48.7831 5.95377Z" fill="#FA8E3C"/>
<path d="M10.0462 5.95377H10.1962V5.80377H10.0462V5.95377ZM9.68438 12.2057L9.547 12.1454L9.54582 12.1483L9.68438 12.2057ZM8.71945 13.6531L8.61338 13.5471L8.71945 13.6531ZM7.27205 14.6382L7.33073 14.7762L7.33235 14.7755L7.27205 14.6382ZM3.77418 14.6382L3.71387 14.7755L3.71672 14.7767L3.77418 14.6382ZM2.32678 13.6531L2.21898 13.7574L2.22071 13.7592L2.32678 13.6531ZM1.36185 12.2057L1.22326 12.2632L1.2245 12.266L1.36185 12.2057ZM1.0201 5.95377V5.80377H0.870103V5.95377H1.0201ZM2.80925 5.95377H2.95925V5.80377H2.80925V5.95377ZM3.01027 11.5222L2.87092 11.578L2.87298 11.5826L3.01027 11.5222ZM3.59325 12.4067L3.4842 12.5101L3.49009 12.5156L3.59325 12.4067ZM4.45767 12.9897L4.39509 13.1263L4.40196 13.129L4.45767 12.9897ZM6.58856 12.9897L6.6443 13.1291L6.64897 13.127L6.58856 12.9897ZM7.45298 12.4067L7.55904 12.5128L7.45298 12.4067ZM8.03595 11.5222L7.89858 11.4618L7.89668 11.4665L8.03595 11.5222ZM8.25708 5.95377V5.80377H8.10708V5.95377H8.25708ZM9.89623 5.95377V10.4568H10.1962V5.95377H9.89623ZM9.89623 10.4568C9.89623 11.0531 9.77969 11.6155 9.54703 12.1454L9.82172 12.266C10.0715 11.697 10.1962 11.0934 10.1962 10.4568H9.89623ZM9.54582 12.1483C9.32543 12.6798 9.01475 13.1457 8.61338 13.5471L8.82551 13.7592C9.25506 13.3296 9.58767 12.8306 9.82294 12.2632L9.54582 12.1483ZM8.61338 13.5471C8.21139 13.949 7.74453 14.2669 7.21175 14.5008L7.33235 14.7755C7.89852 14.5269 8.39659 14.1881 8.82551 13.7592L8.61338 13.5471ZM7.21338 14.5001C6.69733 14.7194 6.13449 14.8299 5.52311 14.8299V15.1299C6.1715 15.1299 6.77463 15.0125 7.33072 14.7762L7.21338 14.5001ZM5.52311 14.8299C4.92561 14.8299 4.36223 14.7196 3.83163 14.4996L3.71672 14.7767C4.28508 15.0124 4.88765 15.1299 5.52311 15.1299V14.8299ZM3.83447 14.5008C3.30169 14.2669 2.83484 13.949 2.43285 13.5471L2.22071 13.7592C2.64963 14.1881 3.14771 14.5269 3.71388 14.7755L3.83447 14.5008ZM2.43457 13.5488C2.04537 13.1466 1.73354 12.6792 1.4992 12.1454L1.2245 12.266C1.47262 12.8312 1.80408 13.3287 2.21899 13.7574L2.43457 13.5488ZM1.50041 12.1483C1.28041 11.6177 1.1701 11.0543 1.1701 10.4568H0.870103C0.870103 11.0923 0.98763 11.6948 1.22329 12.2632L1.50041 12.1483ZM1.1701 10.4568V5.95377H0.870103V10.4568H1.1701ZM1.0201 6.10377H2.80925V5.80377H1.0201V6.10377ZM2.65925 5.95377V10.4568H2.95925V5.95377H2.65925ZM2.65925 10.4568C2.65925 10.8503 2.72961 11.2245 2.871 11.5779L3.14954 11.4665C3.0229 11.1499 2.95925 10.8137 2.95925 10.4568H2.65925ZM2.87298 11.5826C3.02703 11.9328 3.23076 12.2422 3.48436 12.5099L3.70214 12.3036C3.47328 12.062 3.28835 11.7818 3.14757 11.4618L2.87298 11.5826ZM3.49009 12.5156C3.75679 12.7683 4.05869 12.9719 4.39517 13.1261L4.52017 12.8534C4.21336 12.7127 3.93899 12.5277 3.69641 12.2979L3.49009 12.5156ZM4.40196 13.129C4.75543 13.2704 5.12955 13.3408 5.52311 13.3408V13.0408C5.16617 13.0408 4.83 12.9771 4.51338 12.8505L4.40196 13.129ZM5.52311 13.3408C5.91667 13.3408 6.2908 13.2704 6.64427 13.129L6.53285 12.8505C6.21623 12.9771 5.88006 13.0408 5.52311 13.0408V13.3408ZM6.64897 13.127C6.99979 12.9727 7.30372 12.7681 7.55904 12.5128L7.34691 12.3007C7.11976 12.5278 6.84742 12.7119 6.52815 12.8524L6.64897 13.127ZM7.55904 12.5128C7.82807 12.2438 8.03368 11.9318 8.17523 11.5779L7.89668 11.4665C7.77019 11.7827 7.58715 12.0604 7.34691 12.3007L7.55904 12.5128ZM8.17325 11.5826C8.32926 11.2281 8.40708 10.8523 8.40708 10.4568H8.10708C8.10708 10.8118 8.03749 11.1463 7.89866 11.4618L8.17325 11.5826ZM8.40708 10.4568V5.95377H8.10708V10.4568H8.40708ZM8.25708 6.10377H10.0462V5.80377H8.25708V6.10377ZM24.0294 6.31562L23.9678 6.45247L23.9719 6.45418L24.0294 6.31562ZM25.4768 7.28055L25.3707 7.38663L25.3725 7.38834L25.4768 7.28055ZM26.4417 8.70785L26.3031 8.76532L26.3049 8.7694L26.4417 8.70785ZM26.8036 14.9799V15.1299H26.9536V14.9799H26.8036ZM25.0144 14.9799H24.8644V15.1299H25.0144V14.9799ZM24.7933 9.41144L24.6539 9.46722L24.6569 9.47394L24.7933 9.41144ZM24.2103 8.54702L24.1013 8.65034L24.1072 8.65592L24.2103 8.54702ZM23.3459 7.96405L23.2855 8.10142L23.2902 8.10332L23.3459 7.96405ZM21.215 7.96405L21.2727 8.10253L21.2754 8.10134L21.215 7.96405ZM20.3506 8.54702L20.2445 8.44096L20.3506 8.54702ZM19.7676 9.41144L19.6303 9.35102L19.6292 9.35375L19.7676 9.41144ZM19.5666 14.9799V15.1299H19.7166V14.9799H19.5666ZM17.7775 14.9799H17.6275V15.1299H17.7775V14.9799ZM17.5563 9.41144L17.4169 9.46722L17.42 9.47394L17.5563 9.41144ZM16.9733 8.54702L16.8643 8.65034L16.8702 8.65592L16.9733 8.54702ZM16.1089 7.96405L16.0485 8.10142L16.0532 8.10332L16.1089 7.96405ZM13.978 7.96405L14.0357 8.10253L14.0384 8.10134L13.978 7.96405ZM13.1136 8.54702L13.0076 8.44096L13.1136 8.54702ZM12.5306 9.41144L12.3933 9.35102L12.3922 9.35375L12.5306 9.41144ZM12.3296 14.9799V15.1299H12.4796V14.9799H12.3296ZM10.5405 14.9799H10.3905V15.1299H10.5405V14.9799ZM10.8822 8.70785L10.7449 8.64754L10.7442 8.64918L10.8822 8.70785ZM11.8471 7.28055L11.9532 7.38662L11.8471 7.28055ZM13.2945 6.31562L13.352 6.45421L13.3548 6.45297L13.2945 6.31562ZM17.094 6.45634L17.0223 6.58818L17.0257 6.58993L17.094 6.45634ZM18.662 7.78312L18.5413 7.8722L18.662 8.03571L18.7827 7.8722L18.662 7.78312ZM20.23 6.45634L20.2982 6.58995L20.3004 6.58877L20.23 6.45634ZM22.2805 6.10377C22.8907 6.10377 23.4525 6.2205 23.9678 6.45241L24.091 6.17883C23.5342 5.92828 22.93 5.80377 22.2805 5.80377V6.10377ZM23.9719 6.45418C24.5035 6.67457 24.9694 6.98525 25.3707 7.38662L25.5829 7.17449C25.1533 6.74494 24.6543 6.41233 24.0869 6.17706L23.9719 6.45418ZM25.3725 7.38834C25.7728 7.77572 26.083 8.23421 26.3032 8.7653L26.5803 8.65039C26.3448 8.08254 26.0117 7.5895 25.5811 7.17276L25.3725 7.38834ZM26.3049 8.7694C26.5369 9.28476 26.6536 9.84658 26.6536 10.4568H26.9536C26.9536 9.80722 26.8291 9.20308 26.5785 8.64629L26.3049 8.7694ZM26.6536 10.4568V14.9799H26.9536V10.4568H26.6536ZM26.8036 14.8299H25.0144V15.1299H26.8036V14.8299ZM25.1644 14.9799V10.4568H24.8644V14.9799H25.1644ZM25.1644 10.4568C25.1644 10.0613 25.0866 9.69137 24.9297 9.34894L24.6569 9.47394C24.7948 9.7748 24.8644 10.1018 24.8644 10.4568H25.1644ZM24.9326 9.35573C24.7907 9.00115 24.5843 8.69471 24.3135 8.43813L24.1072 8.65592C24.3456 8.88181 24.5278 9.15164 24.654 9.46715L24.9326 9.35573ZM24.3192 8.44386C24.0626 8.17303 23.7562 7.96661 23.4016 7.82477L23.2902 8.10332C23.6057 8.22952 23.8755 8.41175 24.1014 8.65019L24.3192 8.44386ZM23.4063 7.82675C23.0517 7.67074 22.676 7.59292 22.2805 7.59292V7.89292C22.6355 7.89292 22.97 7.96251 23.2855 8.10134L23.4063 7.82675ZM22.2805 7.59292C21.8849 7.59292 21.5092 7.67074 21.1546 7.82675L21.2754 8.10134C21.591 7.96251 21.9255 7.89292 22.2805 7.89292V7.59292ZM21.1573 7.82558C20.817 7.96739 20.5126 8.17294 20.2445 8.44096L20.4567 8.65309C20.6979 8.41184 20.9698 8.22874 21.2727 8.10251L21.1573 7.82558ZM20.2445 8.44096C19.9892 8.69628 19.7847 9.00021 19.6303 9.35103L19.9049 9.47185C20.0454 9.15258 20.2295 8.88024 20.4567 8.65309L20.2445 8.44096ZM19.6292 9.35375C19.487 9.69504 19.4166 10.0633 19.4166 10.4568H19.7166C19.7166 10.0998 19.7803 9.77113 19.9061 9.46913L19.6292 9.35375ZM19.4166 10.4568V14.9799H19.7166V10.4568H19.4166ZM19.5666 14.8299H17.7775V15.1299H19.5666V14.8299ZM17.9275 14.9799V10.4568H17.6275V14.9799H17.9275ZM17.9275 10.4568C17.9275 10.0613 17.8496 9.69137 17.6927 9.34894L17.42 9.47394C17.5579 9.7748 17.6275 10.1018 17.6275 10.4568H17.9275ZM17.6956 9.35573C17.5538 9.00115 17.3473 8.69471 17.0765 8.43813L16.8702 8.65592C17.1086 8.88181 17.2908 9.15164 17.4171 9.46715L17.6956 9.35573ZM17.0822 8.44386C16.8257 8.17303 16.5192 7.96661 16.1646 7.82477L16.0532 8.10332C16.3687 8.22952 16.6386 8.41175 16.8645 8.65019L17.0822 8.44386ZM16.1693 7.82675C15.8148 7.67074 15.439 7.59292 15.0435 7.59292V7.89292C15.3985 7.89292 15.733 7.96251 16.0485 8.10134L16.1693 7.82675ZM15.0435 7.59292C14.648 7.59292 14.2722 7.67074 13.9176 7.82675L14.0384 8.10134C14.354 7.96251 14.6885 7.89292 15.0435 7.89292V7.59292ZM13.9203 7.82558C13.58 7.96739 13.2756 8.17294 13.0076 8.44096L13.2197 8.65309C13.4609 8.41184 13.7328 8.22874 14.0357 8.10251L13.9203 7.82558ZM13.0076 8.44096C12.7522 8.69628 12.5477 9.00021 12.3933 9.35103L12.6679 9.47185C12.8084 9.15258 12.9925 8.88024 13.2197 8.65309L13.0076 8.44096ZM12.3922 9.35375C12.25 9.69504 12.1796 10.0633 12.1796 10.4568H12.4796C12.4796 10.0998 12.5433 9.77113 12.6691 9.46913L12.3922 9.35375ZM12.1796 10.4568V14.9799H12.4796V10.4568H12.1796ZM12.3296 14.8299H10.5405V15.1299H12.3296V14.8299ZM10.6905 14.9799V10.4568H10.3905V14.9799H10.6905ZM10.6905 10.4568C10.6905 9.8454 10.8009 9.28257 11.0203 8.76652L10.7442 8.64918C10.5078 9.20527 10.3905 9.80839 10.3905 10.4568H10.6905ZM11.0196 8.76814C11.2537 8.23478 11.5651 7.77477 11.9532 7.38662L11.7411 7.17449C11.3251 7.59044 10.9932 8.08196 10.7449 8.64755L11.0196 8.76814ZM11.9532 7.38662C12.3546 6.98525 12.8205 6.67457 13.352 6.45418L13.2371 6.17706C12.6697 6.41233 12.1706 6.74494 11.7411 7.17449L11.9532 7.38662ZM13.3548 6.45297C13.8848 6.22031 14.4472 6.10377 15.0435 6.10377V5.80377C14.4068 5.80377 13.8033 5.92847 13.2342 6.17828L13.3548 6.45297ZM15.0435 6.10377C15.7708 6.10377 16.4294 6.26587 17.0223 6.58813L17.1656 6.32455C16.5256 5.97673 15.8172 5.80377 15.0435 5.80377V6.10377ZM17.0257 6.58993C17.6352 6.90112 18.1398 7.32824 18.5413 7.8722L18.7827 7.69404C18.3532 7.11225 17.8125 6.65485 17.1622 6.32275L17.0257 6.58993ZM18.7827 7.8722C19.1842 7.32824 19.6888 6.90112 20.2982 6.58993L20.1618 6.32275C19.5114 6.65485 18.9707 7.11225 18.5413 7.69404L18.7827 7.8722ZM20.3004 6.58877C20.9079 6.26565 21.5671 6.10377 22.2805 6.10377V5.80377C21.5196 5.80377 20.8118 5.97694 20.1595 6.32391L20.3004 6.58877ZM35.9673 8.90887L35.8348 8.83843L35.8343 8.83949L35.9673 8.90887ZM34.6405 10.4568L34.5514 10.3361L34.3879 10.4568L34.5514 10.5775L34.6405 10.4568ZM35.9673 12.0248L35.8337 12.093L35.8348 12.0952L35.9673 12.0248ZM36.4698 14.9799V15.1299H36.6198V14.9799H36.4698ZM34.6807 14.9799H34.5307V15.1299H34.6807V14.9799ZM34.4596 13.0299L34.3201 13.0857L34.3232 13.0924L34.4596 13.0299ZM33.8766 12.1655L33.7675 12.2688L33.7734 12.2744L33.8766 12.1655ZM33.0122 11.5825L32.9496 11.7191L32.9565 11.7218L33.0122 11.5825ZM30.9014 11.5825L30.9571 11.7219L30.9618 11.7198L30.9014 11.5825ZM30.0169 12.1655L30.1229 12.2716L30.0169 12.1655ZM29.4339 13.0299L29.2966 12.9695L29.2954 12.9722L29.4339 13.0299ZM29.2329 14.9799V15.1299H29.3829V14.9799H29.2329ZM27.4437 14.9799H27.2937V15.1299H27.4437V14.9799ZM27.4437 2.33528V2.18528H27.2937V2.33528H27.4437ZM29.2329 2.33528H29.3829V2.18528H29.2329V2.33528ZM29.2329 10.497H29.0829V10.7991L29.3235 10.6165L29.2329 10.497ZM30.4993 9.8135L30.4507 9.6716L30.4494 9.67205L30.4993 9.8135ZM33.0122 9.37124L33.0699 9.50973L33.0726 9.50853L33.0122 9.37124ZM34.4596 7.90374L34.3222 7.84329L34.3203 7.84803L34.4596 7.90374ZM34.6807 5.95377V5.80377H34.5307V5.95377H34.6807ZM36.4698 5.95377H36.6198V5.80377H36.4698V5.95377ZM36.3198 6.83829C36.3198 7.56555 36.1578 8.23137 35.8348 8.83843L36.0997 8.97932C36.4469 8.32661 36.6198 7.61204 36.6198 6.83829H36.3198ZM35.8343 8.83949C35.5233 9.43563 35.0961 9.9341 34.5514 10.3361L34.7296 10.5775C35.3107 10.1486 35.768 9.61509 36.1003 8.97826L35.8343 8.83949ZM34.5514 10.5775C35.0954 10.979 35.5225 11.4836 35.8337 12.093L36.1009 11.9566C35.7688 11.3062 35.3114 10.7655 34.7296 10.3361L34.5514 10.5775ZM35.8348 12.0952C36.158 12.7027 36.3198 13.3619 36.3198 14.0753H36.6198C36.6198 13.3145 36.4467 12.6067 36.0997 11.9544L35.8348 12.0952ZM36.3198 14.0753V14.9799H36.6198V14.0753H36.3198ZM36.4698 14.8299H34.6807V15.1299H36.4698V14.8299ZM34.8307 14.9799V14.0753H34.5307V14.9799H34.8307ZM34.8307 14.0753C34.8307 13.6798 34.7529 13.3099 34.5959 12.9674L34.3232 13.0924C34.4611 13.3933 34.5307 13.7203 34.5307 14.0753H34.8307ZM34.5988 12.9742C34.457 12.6196 34.2506 12.3132 33.9798 12.0566L33.7734 12.2744C34.0119 12.5003 34.1941 12.7701 34.3203 13.0856L34.5988 12.9742ZM33.9855 12.0624C33.7289 11.7915 33.4225 11.5851 33.0679 11.4433L32.9565 11.7218C33.272 11.848 33.5418 12.0302 33.7677 12.2687L33.9855 12.0624ZM33.0747 11.4462C32.7322 11.2892 32.3623 11.2114 31.9668 11.2114V11.5114C32.3218 11.5114 32.6488 11.581 32.9497 11.7189L33.0747 11.4462ZM31.9668 11.2114C31.5713 11.2114 31.1955 11.2892 30.841 11.4452L30.9618 11.7198C31.2773 11.581 31.6118 11.5114 31.9668 11.5114V11.2114ZM30.8457 11.4433C30.4918 11.5848 30.1798 11.7904 29.9108 12.0594L30.1229 12.2716C30.3632 12.0313 30.6409 11.8483 30.9571 11.7218L30.8457 11.4433ZM29.9108 12.0594C29.6555 12.3148 29.451 12.6187 29.2966 12.9695L29.5712 13.0903C29.7117 12.7711 29.8958 12.4987 30.1229 12.2716L29.9108 12.0594ZM29.2954 12.9722C29.1532 13.3135 29.0829 13.6818 29.0829 14.0753H29.3829C29.3829 13.7183 29.4465 13.3896 29.5724 13.0876L29.2954 12.9722ZM29.0829 14.0753V14.9799H29.3829V14.0753H29.0829ZM29.2329 14.8299H27.4437V15.1299H29.2329V14.8299ZM27.5937 14.9799V14.0753H27.2937V14.9799H27.5937ZM27.5937 14.0753V2.33528H27.2937V14.0753H27.5937ZM27.4437 2.48528H29.2329V2.18528H27.4437V2.48528ZM29.0829 2.33528V10.497H29.3829V2.33528H29.0829ZM29.3235 10.6165C29.6999 10.3309 30.1084 10.1106 30.5493 9.95494L30.4494 9.67205C29.979 9.83808 29.5431 10.0734 29.1422 10.3775L29.3235 10.6165ZM30.548 9.95539C31.001 9.80008 31.4737 9.72226 31.9668 9.72226V9.42226C31.4415 9.42226 30.9358 9.50527 30.4507 9.6716L30.548 9.95539ZM31.9668 9.72226C32.3604 9.72226 32.7286 9.6519 33.0699 9.5097L32.9545 9.23277C32.6525 9.35861 32.3238 9.42226 31.9668 9.42226V9.72226ZM33.0726 9.50853C33.4234 9.35417 33.7273 9.14964 33.9827 8.89432L33.7705 8.68219C33.5434 8.90934 33.271 9.09346 32.9518 9.23394L33.0726 9.50853ZM33.9827 8.89432C34.2517 8.62529 34.4573 8.31331 34.5988 7.95945L34.3203 7.84803C34.1938 8.16425 34.0108 8.44195 33.7705 8.68219L33.9827 8.89432ZM34.5969 7.96415C34.7529 7.60958 34.8307 7.23381 34.8307 6.83829H34.5307C34.5307 7.19328 34.4611 7.5278 34.3223 7.84333L34.5969 7.96415ZM34.8307 6.83829V5.95377H34.5307V6.83829H34.8307ZM34.6807 6.10377H36.4698V5.80377H34.6807V6.10377ZM36.3198 5.95377V6.83829H36.6198V5.95377H36.3198ZM50.532 6.31562L50.4704 6.45247L50.4746 6.45418L50.532 6.31562ZM51.9794 7.28055L51.8733 7.38663L51.8751 7.38834L51.9794 7.28055ZM52.9443 8.70785L52.8057 8.76532L52.8076 8.7694L52.9443 8.70785ZM53.3062 14.9799V15.1299H53.4562V14.9799H53.3062ZM51.5171 14.9799H51.3671V15.1299H51.5171V14.9799ZM51.2959 9.41144L51.1565 9.46722L51.1596 9.47394L51.2959 9.41144ZM50.7129 8.54702L50.6039 8.65034L50.6098 8.65592L50.7129 8.54702ZM49.8485 7.96405L49.7881 8.10142L49.7928 8.10332L49.8485 7.96405ZM47.7176 7.96405L47.7753 8.10253L47.778 8.10134L47.7176 7.96405ZM46.8532 8.54702L46.7472 8.44096L46.8532 8.54702ZM46.2702 9.41144L46.1329 9.35102L46.1318 9.35375L46.2702 9.41144ZM46.0692 14.9799V15.1299H46.2192V14.9799H46.0692ZM44.2801 14.9799H44.1301V15.1299H44.2801V14.9799ZM44.0589 9.41144L43.9195 9.46722L43.9226 9.47394L44.0589 9.41144ZM43.476 8.54702L43.3669 8.65034L43.3728 8.65592L43.476 8.54702ZM42.6115 7.96405L42.5511 8.10142L42.5558 8.10332L42.6115 7.96405ZM40.4807 7.96405L40.5384 8.10253L40.5411 8.10134L40.4807 7.96405ZM39.6162 8.54702L39.5102 8.44096L39.6162 8.54702ZM39.0333 9.41144L38.8959 9.35102L38.8948 9.35375L39.0333 9.41144ZM38.8322 14.9799V15.1299H38.9822V14.9799H38.8322ZM37.0431 14.9799H36.8931V15.1299H37.0431V14.9799ZM37.3848 8.70785L37.2475 8.64754L37.2468 8.64918L37.3848 8.70785ZM38.3498 7.28055L38.4558 7.38662L38.3498 7.28055ZM39.7972 6.31562L39.8546 6.45421L39.8575 6.45297L39.7972 6.31562ZM43.5966 6.45634L43.5249 6.58818L43.5284 6.58993L43.5966 6.45634ZM45.1646 7.78312L45.0439 7.8722L45.1646 8.03571L45.2853 7.8722L45.1646 7.78312ZM46.7326 6.45634L46.8008 6.58995L46.803 6.58877L46.7326 6.45634ZM48.7831 6.10377C49.3933 6.10377 49.9551 6.2205 50.4705 6.45241L50.5936 6.17883C50.0368 5.92828 49.4326 5.80377 48.7831 5.80377V6.10377ZM50.4746 6.45418C51.0061 6.67457 51.472 6.98525 51.8733 7.38662L52.0855 7.17449C51.6559 6.74494 51.1569 6.41233 50.5895 6.17706L50.4746 6.45418ZM51.8751 7.38834C52.2754 7.77572 52.5856 8.23421 52.8058 8.7653L53.0829 8.65039C52.8475 8.08254 52.5144 7.5895 52.0837 7.17276L51.8751 7.38834ZM52.8076 8.7694C53.0395 9.28476 53.1562 9.84658 53.1562 10.4568H53.4562C53.4562 9.80722 53.3317 9.20308 53.0811 8.64629L52.8076 8.7694ZM53.1562 10.4568V14.9799H53.4562V10.4568H53.1562ZM53.3062 14.8299H51.5171V15.1299H53.3062V14.8299ZM51.667 14.9799V10.4568H51.3671V14.9799H51.667ZM51.667 10.4568C51.667 10.0613 51.5892 9.69137 51.4323 9.34894L51.1596 9.47394C51.2975 9.7748 51.3671 10.1018 51.3671 10.4568H51.667ZM51.4352 9.35573C51.2934 9.00115 51.0869 8.69471 50.8161 8.43813L50.6098 8.65592C50.8482 8.88181 51.0304 9.15164 51.1567 9.46715L51.4352 9.35573ZM50.8218 8.44386C50.5653 8.17303 50.2588 7.96661 49.9042 7.82477L49.7928 8.10332C50.1083 8.22952 50.3782 8.41175 50.604 8.65019L50.8218 8.44386ZM49.9089 7.82675C49.5544 7.67074 49.1786 7.59292 48.7831 7.59292V7.89292C49.1381 7.89292 49.4726 7.96251 49.7881 8.10134L49.9089 7.82675ZM48.7831 7.59292C48.3876 7.59292 48.0118 7.67074 47.6572 7.82675L47.778 8.10134C48.0936 7.96251 48.4281 7.89292 48.7831 7.89292V7.59292ZM47.6599 7.82558C47.3196 7.96739 47.0152 8.17294 46.7472 8.44096L46.9593 8.65309C47.2005 8.41184 47.4724 8.22874 47.7753 8.10251L47.6599 7.82558ZM46.7472 8.44096C46.4918 8.69628 46.2873 9.00021 46.1329 9.35103L46.4075 9.47185C46.548 9.15258 46.7321 8.88024 46.9593 8.65309L46.7472 8.44096ZM46.1318 9.35375C45.9896 9.69504 45.9192 10.0633 45.9192 10.4568H46.2192C46.2192 10.0998 46.2829 9.77113 46.4087 9.46913L46.1318 9.35375ZM45.9192 10.4568V14.9799H46.2192V10.4568H45.9192ZM46.0692 14.8299H44.2801V15.1299H46.0692V14.8299ZM44.4301 14.9799V10.4568H44.1301V14.9799H44.4301ZM44.4301 10.4568C44.4301 10.0613 44.3522 9.69137 44.1953 9.34894L43.9226 9.47394C44.0605 9.7748 44.1301 10.1018 44.1301 10.4568H44.4301ZM44.1982 9.35573C44.0564 9.00115 43.85 8.69471 43.5791 8.43813L43.3728 8.65592C43.6112 8.88181 43.7935 9.15164 43.9197 9.46715L44.1982 9.35573ZM43.5849 8.44386C43.3283 8.17303 43.0218 7.96661 42.6673 7.82477L42.5558 8.10332C42.8713 8.22952 43.1412 8.41175 43.3671 8.65019L43.5849 8.44386ZM42.672 7.82675C42.3174 7.67074 41.9416 7.59292 41.5461 7.59292V7.89292C41.9011 7.89292 42.2356 7.96251 42.5511 8.10134L42.672 7.82675ZM41.5461 7.59292C41.1506 7.59292 40.7748 7.67074 40.4202 7.82675L40.5411 8.10134C40.8566 7.96251 41.1911 7.89292 41.5461 7.89292V7.59292ZM40.423 7.82558C40.0826 7.96739 39.7782 8.17294 39.5102 8.44096L39.7223 8.65309C39.9636 8.41184 40.2354 8.22874 40.5383 8.10251L40.423 7.82558ZM39.5102 8.44096C39.2549 8.69628 39.0503 9.00021 38.896 9.35103L39.1706 9.47185C39.311 9.15258 39.4952 8.88024 39.7223 8.65309L39.5102 8.44096ZM38.8948 9.35375C38.7526 9.69504 38.6822 10.0633 38.6822 10.4568H38.9822C38.9822 10.0998 39.0459 9.77113 39.1717 9.46913L38.8948 9.35375ZM38.6822 10.4568V14.9799H38.9822V10.4568H38.6822ZM38.8322 14.8299H37.0431V15.1299H38.8322V14.8299ZM37.1931 14.9799V10.4568H36.8931V14.9799H37.1931ZM37.1931 10.4568C37.1931 9.8454 37.3036 9.28257 37.5229 8.76652L37.2468 8.64918C37.0104 9.20527 36.8931 9.80839 36.8931 10.4568H37.1931ZM37.5222 8.76814C37.7563 8.23478 38.0677 7.77477 38.4558 7.38662L38.2437 7.17449C37.8277 7.59044 37.4958 8.08196 37.2475 8.64755L37.5222 8.76814ZM38.4558 7.38662C38.8572 6.98525 39.3231 6.67457 39.8546 6.45418L39.7397 6.17706C39.1723 6.41233 38.6732 6.74494 38.2437 7.17449L38.4558 7.38662ZM39.8575 6.45297C40.3874 6.22031 40.9498 6.10377 41.5461 6.10377V5.80377C40.9094 5.80377 40.3059 5.92847 39.7369 6.17828L39.8575 6.45297ZM41.5461 6.10377C42.2734 6.10377 42.932 6.26587 43.5249 6.58813L43.6682 6.32455C43.0282 5.97673 42.3198 5.80377 41.5461 5.80377V6.10377ZM43.5284 6.58993C44.1378 6.90112 44.6424 7.32824 45.0439 7.8722L45.2853 7.69404C44.8559 7.11225 44.3151 6.65485 43.6648 6.32275L43.5284 6.58993ZM45.2853 7.8722C45.6868 7.32824 46.1914 6.90112 46.8008 6.58993L46.6644 6.32275C46.014 6.65485 45.4733 7.11225 45.0439 7.69404L45.2853 7.8722ZM46.803 6.58877C47.4105 6.26565 48.0697 6.10377 48.7831 6.10377V5.80377C48.0223 5.80377 47.3145 5.97694 46.6622 6.32391L46.803 6.58877Z" fill="#FA8E3C"/>
<rect width="94" height="2" transform="matrix(1 0 0 -1 58 11)" fill="#FA8E3C"/>
<path d="M4.54102 36.5455H5.52912L4.93786 40.109C4.87393 40.4996 4.72479 40.8432 4.49041 41.1397C4.25781 41.4363 3.96129 41.668 3.60085 41.8349C3.24041 42 2.83913 42.0826 2.39702 42.0826C1.95135 42.0826 1.5767 42 1.27308 41.8349C0.96946 41.668 0.750178 41.4363 0.615234 41.1397C0.482067 40.8432 0.447443 40.4996 0.511364 40.109L1.10263 36.5455H2.09073L1.51278 40.0265C1.4755 40.2537 1.49237 40.4561 1.56339 40.6337C1.63619 40.8095 1.75515 40.948 1.92028 41.0492C2.08718 41.1504 2.29581 41.201 2.54616 41.201C2.79652 41.201 3.02202 41.1504 3.22266 41.0492C3.4233 40.948 3.58754 40.8095 3.71538 40.6337C3.84322 40.4561 3.92578 40.2537 3.96307 40.0265L4.54102 36.5455ZM9.38632 38.9904L8.49942 39.0863C8.49055 38.9957 8.46302 38.9114 8.41686 38.8333C8.37069 38.7551 8.30145 38.693 8.20912 38.6468C8.11856 38.5989 8.00138 38.5749 7.85756 38.5749C7.64804 38.5749 7.46427 38.622 7.30624 38.7161C7.14822 38.8102 7.05855 38.9309 7.03724 39.0783C7.01771 39.1884 7.04434 39.2781 7.11714 39.3473C7.18994 39.4165 7.32488 39.4751 7.52197 39.5231L8.19846 39.6722C8.57133 39.7557 8.83944 39.8906 9.0028 40.0771C9.16792 40.2635 9.22563 40.5076 9.17591 40.8095C9.1333 41.0616 9.02322 41.2836 8.84566 41.4753C8.6681 41.6653 8.44083 41.8136 8.16384 41.9201C7.88863 42.0266 7.58323 42.0799 7.24765 42.0799C6.73806 42.0799 6.34566 41.9743 6.07045 41.763C5.79701 41.5499 5.66118 41.2569 5.66295 40.8841L6.61111 40.7935C6.62176 40.9782 6.68657 41.1175 6.80553 41.2116C6.92449 41.304 7.08962 41.351 7.30091 41.3528C7.53884 41.3546 7.73948 41.3049 7.90283 41.2037C8.06796 41.1007 8.16118 40.9755 8.18248 40.8281C8.20024 40.718 8.17272 40.6284 8.09992 40.5591C8.0289 40.4899 7.90194 40.4348 7.71906 40.394L7.0479 40.2475C6.66792 40.1641 6.39715 40.0229 6.23557 39.824C6.07577 39.6234 6.02162 39.3704 6.07311 39.065C6.11572 38.8164 6.21959 38.6025 6.38472 38.4231C6.55162 38.242 6.76558 38.1026 7.02659 38.005C7.2876 37.9055 7.57968 37.8558 7.90283 37.8558C8.38934 37.8558 8.75599 37.9579 9.0028 38.1621C9.2496 38.3663 9.37744 38.6424 9.38632 38.9904ZM10.9377 42.0826C10.6785 42.0826 10.453 42.0364 10.2612 41.9441C10.0695 41.85 9.92831 41.7115 9.83776 41.5286C9.74898 41.3457 9.72678 41.1202 9.77117 40.8521C9.81024 40.6213 9.88481 40.4304 9.9949 40.2795C10.1068 40.1286 10.2435 40.0078 10.4051 39.9173C10.5684 39.8249 10.746 39.7557 10.9377 39.7095C11.1313 39.6634 11.3283 39.6296 11.529 39.6083C11.774 39.5835 11.972 39.5604 12.1229 39.5391C12.2756 39.5178 12.3901 39.4858 12.4665 39.4432C12.5428 39.3988 12.589 39.3313 12.605 39.2408V39.2248C12.6369 39.0241 12.605 38.8688 12.5091 38.7587C12.4132 38.6486 12.2534 38.5936 12.0297 38.5936C11.7953 38.5936 11.5982 38.6451 11.4384 38.748C11.2786 38.851 11.1623 38.9727 11.0895 39.1129L10.216 38.9851C10.326 38.7365 10.477 38.5288 10.6687 38.3619C10.8605 38.1932 11.0815 38.0671 11.3319 37.9837C11.584 37.8984 11.853 37.8558 12.1389 37.8558C12.3342 37.8558 12.5251 37.8789 12.7115 37.9251C12.8997 37.9712 13.0657 38.0476 13.2096 38.1541C13.3552 38.2589 13.4617 38.4018 13.5292 38.5829C13.5984 38.764 13.61 38.9904 13.5638 39.2621L13.1084 42H12.1815L12.2774 41.438H12.2454C12.1691 41.5517 12.0696 41.6582 11.9471 41.7576C11.8246 41.8553 11.679 41.9343 11.5103 41.9947C11.3417 42.0533 11.1508 42.0826 10.9377 42.0826ZM11.3026 41.3741C11.4961 41.3741 11.6701 41.3359 11.8246 41.2596C11.9791 41.1815 12.106 41.0785 12.2055 40.9506C12.3049 40.8228 12.3671 40.6834 12.3919 40.5325L12.4718 40.0504C12.4363 40.0753 12.3813 40.0984 12.3067 40.1197C12.2321 40.141 12.1487 40.1596 12.0563 40.1756C11.9658 40.1916 11.8761 40.2058 11.7873 40.2182C11.6986 40.2306 11.6222 40.2413 11.5583 40.2502C11.4109 40.2697 11.276 40.3017 11.1535 40.3461C11.0327 40.3904 10.9324 40.4526 10.8525 40.5325C10.7744 40.6106 10.7255 40.7118 10.706 40.8361C10.6776 41.0119 10.7193 41.146 10.8312 41.2383C10.943 41.3288 11.1002 41.3741 11.3026 41.3741ZM15.4415 39.603L15.0473 42H14.0805L14.986 36.5455H15.9315L15.5906 38.6042H15.6412C15.7708 38.3716 15.9475 38.1887 16.1712 38.0556C16.3967 37.9224 16.6675 37.8558 16.9835 37.8558C17.2641 37.8558 17.5002 37.9153 17.692 38.0343C17.8837 38.1532 18.0187 38.3272 18.0968 38.5563C18.1767 38.7853 18.19 39.065 18.1368 39.3952L17.7 42H16.7332L17.1433 39.5444C17.1877 39.2692 17.1513 39.0552 17.0341 38.9025C16.9187 38.748 16.7358 38.6708 16.4855 38.6708C16.3133 38.6708 16.1543 38.7081 16.0087 38.7827C15.8631 38.8555 15.7406 38.9611 15.6412 39.0996C15.5435 39.2381 15.477 39.4059 15.4415 39.603ZM19.844 42.0826C19.5847 42.0826 19.3592 42.0364 19.1675 41.9441C18.9757 41.85 18.8346 41.7115 18.744 41.5286C18.6552 41.3457 18.633 41.1202 18.6774 40.8521C18.7165 40.6213 18.7911 40.4304 18.9011 40.2795C19.013 40.1286 19.1497 40.0078 19.3113 39.9173C19.4747 39.8249 19.6522 39.7557 19.844 39.7095C20.0375 39.6634 20.2346 39.6296 20.4352 39.6083C20.6803 39.5835 20.8782 39.5604 21.0292 39.5391C21.1819 39.5178 21.2964 39.4858 21.3727 39.4432C21.4491 39.3988 21.4953 39.3313 21.5112 39.2408V39.2248C21.5432 39.0241 21.5112 38.8688 21.4153 38.7587C21.3195 38.6486 21.1597 38.5936 20.9359 38.5936C20.7016 38.5936 20.5045 38.6451 20.3447 38.748C20.1849 38.851 20.0686 38.9727 19.9958 39.1129L19.1222 38.9851C19.2323 38.7365 19.3832 38.5288 19.575 38.3619C19.7667 38.1932 19.9878 38.0671 20.2381 37.9837C20.4903 37.8984 20.7593 37.8558 21.0451 37.8558C21.2405 37.8558 21.4313 37.8789 21.6178 37.9251C21.806 37.9712 21.972 38.0476 22.1158 38.1541C22.2614 38.2589 22.3679 38.4018 22.4354 38.5829C22.5047 38.764 22.5162 38.9904 22.47 39.2621L22.0146 42H21.0878L21.1836 41.438H21.1517C21.0753 41.5517 20.9759 41.6582 20.8534 41.7576C20.7309 41.8553 20.5853 41.9343 20.4166 41.9947C20.2479 42.0533 20.057 42.0826 19.844 42.0826ZM20.2089 41.3741C20.4024 41.3741 20.5764 41.3359 20.7309 41.2596C20.8853 41.1815 21.0123 41.0785 21.1117 40.9506C21.2112 40.8228 21.2733 40.6834 21.2982 40.5325L21.3781 40.0504C21.3426 40.0753 21.2875 40.0984 21.2129 40.1197C21.1384 40.141 21.0549 40.1596 20.9626 40.1756C20.872 40.1916 20.7824 40.2058 20.6936 40.2182C20.6048 40.2306 20.5285 40.2413 20.4645 40.2502C20.3172 40.2697 20.1822 40.3017 20.0597 40.3461C19.939 40.3904 19.8386 40.4526 19.7587 40.5325C19.6806 40.6106 19.6318 40.7118 19.6123 40.8361C19.5839 41.0119 19.6256 41.146 19.7374 41.2383C19.8493 41.3288 20.0064 41.3741 20.2089 41.3741ZM25.7926 36.5455H27.0017L27.9685 40.4979H28.0324L30.3043 36.5455H31.5135L30.6079 42H29.6598L30.283 38.2527H30.235L28.1044 41.984H27.3986L26.5143 38.2447H26.4637L25.8352 42H24.887L25.7926 36.5455ZM31.6413 42L32.3231 37.9091H33.2872L32.6054 42H31.6413ZM32.9463 37.3232C32.7919 37.3232 32.664 37.2717 32.5628 37.1687C32.4616 37.0657 32.4172 36.9423 32.4296 36.7985C32.4421 36.6547 32.5069 36.5312 32.6241 36.4283C32.743 36.3253 32.8789 36.2738 33.0316 36.2738C33.186 36.2738 33.313 36.3253 33.4124 36.4283C33.5136 36.5312 33.558 36.6547 33.5456 36.7985C33.5349 36.9423 33.4701 37.0657 33.3512 37.1687C33.234 37.2717 33.099 37.3232 32.9463 37.3232ZM34.6862 40.7163L34.8753 39.5524H35.0297L36.7796 37.9091H37.9062L35.7648 39.9226H35.5677L34.6862 40.7163ZM33.5969 42L34.5024 36.5455H35.4665L34.561 42H33.5969ZM36.1643 42L35.1416 40.1383L35.906 39.4592L37.3176 42H36.1643ZM37.8669 42L38.5487 37.9091H39.4835L39.369 38.5909H39.4116C39.5235 38.3548 39.6815 38.1728 39.8857 38.0449C40.0917 37.9153 40.3118 37.8505 40.5462 37.8505C40.6013 37.8505 40.6607 37.8532 40.7247 37.8585C40.7886 37.862 40.8436 37.8683 40.8898 37.8771L40.7406 38.764C40.6998 38.7498 40.6359 38.7374 40.5489 38.7267C40.4636 38.7143 40.3793 38.7081 40.2959 38.7081C40.1201 38.7081 39.9567 38.7463 39.8058 38.8226C39.6566 38.8972 39.5306 39.0011 39.4276 39.1342C39.3246 39.2674 39.258 39.421 39.2278 39.595L38.831 42H37.8669ZM42.4745 42.0799C42.0714 42.0799 41.7358 41.9911 41.4677 41.8136C41.2014 41.636 41.0141 41.3865 40.9058 41.0652C40.7975 40.7438 40.7779 40.3709 40.8472 39.9466C40.9164 39.5275 41.0549 39.1609 41.2627 38.8466C41.4722 38.5323 41.7358 38.2891 42.0537 38.1168C42.3733 37.9428 42.731 37.8558 43.127 37.8558C43.5301 37.8558 43.8647 37.9455 44.1311 38.1248C44.3974 38.3024 44.5847 38.5518 44.693 38.8732C44.8031 39.1946 44.8236 39.5692 44.7543 39.9972C44.6868 40.4144 44.5475 40.7793 44.3362 41.0918C44.1266 41.4043 43.863 41.6475 43.5451 41.8216C43.2273 41.9938 42.8704 42.0799 42.4745 42.0799ZM42.5544 41.3075C42.7781 41.3075 42.9743 41.2472 43.143 41.1264C43.3134 41.0039 43.4528 40.8397 43.5611 40.6337C43.6712 40.426 43.7476 40.1951 43.7902 39.9412C43.8292 39.6962 43.8301 39.4743 43.7928 39.2754C43.7555 39.0748 43.6756 38.9158 43.5531 38.7987C43.4324 38.6797 43.2646 38.6202 43.0498 38.6202C42.826 38.6202 42.6281 38.6824 42.4558 38.8066C42.2854 38.9292 42.146 39.0943 42.0377 39.302C41.9294 39.508 41.8548 39.7379 41.814 39.9918C41.7731 40.2369 41.7714 40.4588 41.8086 40.6577C41.8459 40.8565 41.9258 41.0146 42.0483 41.1317C42.1709 41.2489 42.3395 41.3075 42.5544 41.3075ZM47.1453 42L48.0509 36.5455H49.039L48.6262 39.0517H48.6927L51.2336 36.5455H52.4401L49.9285 38.9931L51.5532 42H50.3653L49.1349 39.6616L48.4051 40.3807L48.1334 42H47.1453ZM53.6785 42.0799C53.2684 42.0799 52.9292 41.9947 52.6611 41.8242C52.393 41.652 52.2048 41.4087 52.0965 41.0945C51.99 40.7784 51.9722 40.4064 52.0432 39.9785C52.1125 39.5577 52.2536 39.1884 52.4667 38.8706C52.6798 38.551 52.9461 38.3024 53.2657 38.1248C53.5871 37.9455 53.9422 37.8558 54.3311 37.8558C54.5832 37.8558 54.8149 37.8967 55.0262 37.9783C55.2375 38.0582 55.4159 38.1825 55.5615 38.3512C55.7071 38.5199 55.8074 38.7347 55.8625 38.9957C55.9175 39.255 55.9149 39.5639 55.8545 39.9226L55.8092 40.2182H52.4534L52.5573 39.5684H54.9862C55.0182 39.3837 55.0075 39.2195 54.9543 39.0756C54.901 38.93 54.8122 38.8155 54.6879 38.7321C54.5637 38.6486 54.4083 38.6069 54.2219 38.6069C54.0319 38.6069 53.8543 38.6557 53.6892 38.7534C53.5258 38.8493 53.3882 38.9735 53.2764 39.1262C53.1645 39.2789 53.0935 39.4396 53.0633 39.6083L52.9541 40.2315C52.915 40.4872 52.9239 40.6958 52.9807 40.8574C53.0376 41.019 53.137 41.138 53.279 41.2143C53.4211 41.2907 53.6004 41.3288 53.817 41.3288C53.9591 41.3288 54.0905 41.3093 54.2112 41.2702C54.3319 41.2312 54.4394 41.1726 54.5335 41.0945C54.6294 41.0146 54.7093 40.9169 54.7732 40.8015L55.6547 40.9027C55.5571 41.1406 55.4142 41.3484 55.2259 41.5259C55.0377 41.7017 54.8122 41.8384 54.5494 41.9361C54.2884 42.032 53.9981 42.0799 53.6785 42.0799ZM58.105 42.0799C57.6966 42.0799 57.3611 41.9902 57.0983 41.8109C56.8355 41.6316 56.6517 41.3839 56.547 41.0678C56.444 40.75 56.4271 40.3842 56.4964 39.9705C56.5638 39.555 56.7032 39.1884 56.9145 38.8706C57.1276 38.551 57.3957 38.3024 57.7188 38.1248C58.042 37.9455 58.4033 37.8558 58.8028 37.8558C59.1349 37.8558 59.4181 37.9171 59.6524 38.0396C59.8886 38.1603 60.0644 38.3317 60.1798 38.5536C60.297 38.7738 60.3422 39.0312 60.3156 39.326H59.3914C59.3879 39.1289 59.3266 38.9647 59.2077 38.8333C59.0887 38.7001 58.9147 38.6335 58.6856 38.6335C58.4868 38.6335 58.3039 38.6868 58.137 38.7933C57.9701 38.8981 57.8289 39.049 57.7135 39.2461C57.5981 39.4432 57.5182 39.6793 57.4738 39.9545C57.4276 40.2333 57.4285 40.473 57.4765 40.6737C57.5262 40.8725 57.6159 41.0261 57.7455 41.1344C57.8769 41.2409 58.0429 41.2942 58.2435 41.2942C58.3856 41.2942 58.5178 41.2676 58.6404 41.2143C58.7629 41.1593 58.8703 41.0803 58.9626 40.9773C59.0567 40.8743 59.1304 40.7491 59.1837 40.6017H60.1052C60.0324 40.8912 59.9028 41.1477 59.7164 41.3714C59.5317 41.5934 59.3026 41.7674 59.0292 41.8935C58.7558 42.0178 58.4477 42.0799 58.105 42.0799ZM60.6598 42L61.3417 37.9091H62.3058L61.624 42H60.6598ZM61.9649 37.3232C61.8104 37.3232 61.6826 37.2717 61.5814 37.1687C61.4802 37.0657 61.4358 36.9423 61.4482 36.7985C61.4606 36.6547 61.5254 36.5312 61.6426 36.4283C61.7616 36.3253 61.8974 36.2738 62.0501 36.2738C62.2046 36.2738 62.3315 36.3253 62.431 36.4283C62.5322 36.5312 62.5766 36.6547 62.5641 36.7985C62.5535 36.9423 62.4887 37.0657 62.3697 37.1687C62.2525 37.2717 62.1176 37.3232 61.9649 37.3232ZM64.4851 36.5455L63.5795 42H62.6154L63.521 36.5455H64.4851ZM67.9441 42.0719C67.6227 42.0719 67.3484 41.9893 67.1211 41.8242C66.8939 41.6591 66.7323 41.4194 66.6364 41.1051C66.5423 40.7908 66.5316 40.4091 66.6044 39.9599C66.6808 39.5053 66.8202 39.1218 67.0226 38.8093C67.225 38.495 67.4665 38.258 67.747 38.0982C68.0293 37.9366 68.3276 37.8558 68.6419 37.8558C68.8834 37.8558 69.0743 37.8967 69.2145 37.9783C69.3566 38.0582 69.4631 38.155 69.5341 38.2686C69.6052 38.3805 69.6575 38.4862 69.6913 38.5856H69.7312L70.0695 36.5455H71.0363L70.1307 42H69.1826L69.2918 41.3555H69.2332C69.1657 41.4549 69.076 41.5605 68.9642 41.6724C68.8523 41.7825 68.7129 41.8766 68.546 41.9547C68.3791 42.0328 68.1785 42.0719 67.9441 42.0719ZM68.3276 41.2809C68.5336 41.2809 68.7183 41.2259 68.8816 41.1158C69.0467 41.0039 69.1843 40.8485 69.2944 40.6497C69.4045 40.4508 69.4818 40.2191 69.5261 39.9545C69.5705 39.69 69.5705 39.46 69.5261 39.2647C69.4818 39.0694 69.3956 38.9176 69.2678 38.8093C69.14 38.701 68.9722 38.6468 68.7644 38.6468C68.5514 38.6468 68.364 38.7028 68.2025 38.8146C68.0427 38.9265 67.9113 39.081 67.8083 39.2781C67.7053 39.4751 67.6325 39.7006 67.5899 39.9545C67.5473 40.2102 67.5446 40.4384 67.5819 40.639C67.621 40.8379 67.7017 40.995 67.8243 41.1104C67.9486 41.2241 68.1163 41.2809 68.3276 41.2809ZM72.3293 42.0826C72.0701 42.0826 71.8446 42.0364 71.6528 41.9441C71.4611 41.85 71.3199 41.7115 71.2294 41.5286C71.1406 41.3457 71.1184 41.1202 71.1628 40.8521C71.2018 40.6213 71.2764 40.4304 71.3865 40.2795C71.4984 40.1286 71.6351 40.0078 71.7967 39.9173C71.96 39.8249 72.1376 39.7557 72.3293 39.7095C72.5229 39.6634 72.7199 39.6296 72.9206 39.6083C73.1656 39.5835 73.3636 39.5604 73.5145 39.5391C73.6672 39.5178 73.7817 39.4858 73.8581 39.4432C73.9344 39.3988 73.9806 39.3313 73.9966 39.2408V39.2248C74.0285 39.0241 73.9966 38.8688 73.9007 38.7587C73.8048 38.6486 73.645 38.5936 73.4213 38.5936C73.1869 38.5936 72.9898 38.6451 72.83 38.748C72.6702 38.851 72.5539 38.9727 72.4811 39.1129L71.6076 38.9851C71.7176 38.7365 71.8686 38.5288 72.0603 38.3619C72.2521 38.1932 72.4731 38.0671 72.7235 37.9837C72.9756 37.8984 73.2446 37.8558 73.5305 37.8558C73.7258 37.8558 73.9167 37.8789 74.1031 37.9251C74.2913 37.9712 74.4573 38.0476 74.6012 38.1541C74.7468 38.2589 74.8533 38.4018 74.9208 38.5829C74.99 38.764 75.0016 38.9904 74.9554 39.2621L74.5 42H73.5731L73.669 41.438H73.637C73.5607 41.5517 73.4612 41.6582 73.3387 41.7576C73.2162 41.8553 73.0706 41.9343 72.9019 41.9947C72.7333 42.0533 72.5424 42.0826 72.3293 42.0826ZM72.6942 41.3741C72.8877 41.3741 73.0617 41.3359 73.2162 41.2596C73.3707 41.1815 73.4976 41.0785 73.5971 40.9506C73.6965 40.8228 73.7587 40.6834 73.7835 40.5325L73.8634 40.0504C73.8279 40.0753 73.7729 40.0984 73.6983 40.1197C73.6237 40.141 73.5403 40.1596 73.4479 40.1756C73.3574 40.1916 73.2677 40.2058 73.1789 40.2182C73.0902 40.2306 73.0138 40.2413 72.9499 40.2502C72.8025 40.2697 72.6676 40.3017 72.5451 40.3461C72.4243 40.3904 72.324 40.4526 72.2441 40.5325C72.166 40.6106 72.1171 40.7118 72.0976 40.8361C72.0692 41.0119 72.1109 41.146 72.2228 41.2383C72.3347 41.3288 72.4918 41.3741 72.6942 41.3741ZM76.8331 39.603L76.4389 42H75.4721L76.1539 37.9091H77.0781L76.9609 38.6042H77.0115C77.1393 38.3752 77.3187 38.1932 77.5495 38.0582C77.7803 37.9233 78.0493 37.8558 78.3565 37.8558C78.6353 37.8558 78.8696 37.9162 79.0596 38.0369C79.2496 38.1559 79.3845 38.3308 79.4644 38.5616C79.5443 38.7907 79.5568 39.0685 79.5017 39.3952L79.0649 42H78.1008L78.5083 39.5444C78.5545 39.2727 78.5198 39.0597 78.4044 38.9052C78.2908 38.7489 78.1079 38.6708 77.8558 38.6708C77.6871 38.6708 77.5317 38.7081 77.3897 38.7827C77.2476 38.8555 77.1278 38.9611 77.0301 39.0996C76.9343 39.2381 76.8686 39.4059 76.8331 39.603ZM82.8482 36.5455H84.0574L85.0242 40.4979H85.0881L87.36 36.5455H88.5691L87.6636 42H86.7154L87.3386 38.2527H87.2907L85.16 41.984H84.4542L83.57 38.2447H83.5194L82.8908 42H81.9427L82.8482 36.5455ZM90.4974 42.0799C90.0872 42.0799 89.7481 41.9947 89.48 41.8242C89.2119 41.652 89.0237 41.4087 88.9153 41.0945C88.8088 40.7784 88.7911 40.4064 88.8621 39.9785C88.9313 39.5577 89.0725 39.1884 89.2856 38.8706C89.4986 38.551 89.765 38.3024 90.0846 38.1248C90.4059 37.9455 90.7611 37.8558 91.1499 37.8558C91.402 37.8558 91.6337 37.8967 91.845 37.9783C92.0563 38.0582 92.2348 38.1825 92.3804 38.3512C92.526 38.5199 92.6263 38.7347 92.6813 38.9957C92.7364 39.255 92.7337 39.5639 92.6733 39.9226L92.6281 40.2182H89.2722L89.3761 39.5684H91.8051C91.837 39.3837 91.8264 39.2195 91.7731 39.0756C91.7199 38.93 91.6311 38.8155 91.5068 38.7321C91.3825 38.6486 91.2271 38.6069 91.0407 38.6069C90.8507 38.6069 90.6732 38.6557 90.508 38.7534C90.3447 38.8493 90.2071 38.9735 90.0952 39.1262C89.9834 39.2789 89.9123 39.4396 89.8821 39.6083L89.7729 40.2315C89.7339 40.4872 89.7428 40.6958 89.7996 40.8574C89.8564 41.019 89.9558 41.138 90.0979 41.2143C90.2399 41.2907 90.4193 41.3288 90.6359 41.3288C90.7779 41.3288 90.9093 41.3093 91.0301 41.2702C91.1508 41.2312 91.2582 41.1726 91.3523 41.0945C91.4482 41.0146 91.5281 40.9169 91.592 40.8015L92.4736 40.9027C92.3759 41.1406 92.233 41.3484 92.0448 41.5259C91.8566 41.7017 91.6311 41.8384 91.3683 41.9361C91.1073 42.032 90.817 42.0799 90.4974 42.0799ZM94.5137 39.603L94.1195 42H93.1527L93.8346 37.9091H94.7587L94.6416 38.6042H94.6922C94.82 38.3752 94.9993 38.1932 95.2302 38.0582C95.461 37.9233 95.73 37.8558 96.0372 37.8558C96.3159 37.8558 96.5503 37.9162 96.7403 38.0369C96.9303 38.1559 97.0652 38.3308 97.1451 38.5616C97.225 38.7907 97.2374 39.0685 97.1824 39.3952L96.7456 42H95.7815L96.189 39.5444C96.2351 39.2727 96.2005 39.0597 96.0851 38.9052C95.9715 38.7489 95.7886 38.6708 95.5364 38.6708C95.3678 38.6708 95.2124 38.7081 95.0704 38.7827C94.9283 38.8555 94.8085 38.9611 94.7108 39.0996C94.6149 39.2381 94.5492 39.4059 94.5137 39.603ZM99.5208 42.0799C99.1107 42.0799 98.7715 41.9947 98.5034 41.8242C98.2353 41.652 98.0471 41.4087 97.9388 41.0945C97.8323 40.7784 97.8145 40.4064 97.8855 39.9785C97.9548 39.5577 98.0959 39.1884 98.309 38.8706C98.5221 38.551 98.7884 38.3024 99.108 38.1248C99.4294 37.9455 99.7845 37.8558 100.173 37.8558C100.425 37.8558 100.657 37.8967 100.868 37.9783C101.08 38.0582 101.258 38.1825 101.404 38.3512C101.549 38.5199 101.65 38.7347 101.705 38.9957C101.76 39.255 101.757 39.5639 101.697 39.9226L101.652 40.2182H98.2957L98.3995 39.5684H100.829C100.86 39.3837 100.85 39.2195 100.797 39.0756C100.743 38.93 100.655 38.8155 100.53 38.7321C100.406 38.6486 100.251 38.6069 100.064 38.6069C99.8742 38.6069 99.6966 38.6557 99.5315 38.7534C99.3681 38.8493 99.2305 38.9735 99.1187 39.1262C99.0068 39.2789 98.9358 39.4396 98.9056 39.6083L98.7964 40.2315C98.7573 40.4872 98.7662 40.6958 98.823 40.8574C98.8798 41.019 98.9793 41.138 99.1213 41.2143C99.2634 41.2907 99.4427 41.3288 99.6593 41.3288C99.8014 41.3288 99.9328 41.3093 100.053 41.2702C100.174 41.2312 100.282 41.1726 100.376 41.0945C100.472 41.0146 100.552 40.9169 100.615 40.8015L101.497 40.9027C101.399 41.1406 101.256 41.3484 101.068 41.5259C100.88 41.7017 100.655 41.8384 100.392 41.9361C100.131 42.032 99.8404 42.0799 99.5208 42.0799ZM103.537 39.603L103.143 42H102.176L102.858 37.9091H103.782L103.665 38.6042H103.716C103.843 38.3752 104.023 38.1932 104.254 38.0582C104.484 37.9233 104.753 37.8558 105.061 37.8558C105.339 37.8558 105.574 37.9162 105.764 38.0369C105.954 38.1559 106.089 38.3308 106.169 38.5616C106.248 38.7907 106.261 39.0685 106.206 39.3952L105.769 42H104.805L105.212 39.5444C105.259 39.2727 105.224 39.0597 105.109 38.9052C104.995 38.7489 104.812 38.6708 104.56 38.6708C104.391 38.6708 104.236 38.7081 104.094 38.7827C103.952 38.8555 103.832 38.9611 103.734 39.0996C103.638 39.2381 103.573 39.4059 103.537 39.603ZM108.267 43.6193C107.919 43.6193 107.629 43.5723 107.396 43.4782C107.164 43.3858 106.984 43.2615 106.858 43.1053C106.732 42.949 106.654 42.7759 106.624 42.5859L107.53 42.3755C107.556 42.4554 107.599 42.5344 107.657 42.6126C107.718 42.6925 107.807 42.7582 107.924 42.8097C108.041 42.8629 108.197 42.8896 108.392 42.8896C108.666 42.8896 108.905 42.823 109.109 42.6898C109.313 42.5566 109.439 42.34 109.487 42.04L109.61 41.2649H109.562C109.498 41.3643 109.41 41.4664 109.298 41.5712C109.188 41.676 109.049 41.7638 108.88 41.8349C108.713 41.9059 108.512 41.9414 108.278 41.9414C107.964 41.9414 107.691 41.8677 107.46 41.7203C107.229 41.5712 107.063 41.3493 106.962 41.0545C106.863 40.758 106.85 40.3869 106.925 39.9412C106.998 39.492 107.134 39.1129 107.335 38.804C107.538 38.4933 107.78 38.258 108.062 38.0982C108.345 37.9366 108.643 37.8558 108.957 37.8558C109.197 37.8558 109.388 37.8967 109.53 37.9783C109.672 38.0582 109.779 38.155 109.852 38.2686C109.925 38.3805 109.978 38.4862 110.012 38.5856H110.062L110.174 37.9091H111.125L110.438 42.0666C110.381 42.4164 110.251 42.7058 110.046 42.9348C109.842 43.1657 109.586 43.337 109.277 43.4489C108.97 43.5625 108.633 43.6193 108.267 43.6193ZM108.661 41.185C108.866 41.185 109.049 41.1353 109.21 41.0359C109.372 40.9364 109.507 40.7935 109.615 40.6071C109.723 40.4206 109.799 40.1969 109.841 39.9359C109.884 39.6784 109.882 39.4529 109.836 39.2594C109.792 39.0659 109.705 38.9158 109.578 38.8093C109.45 38.701 109.283 38.6468 109.077 38.6468C108.862 38.6468 108.674 38.7028 108.512 38.8146C108.352 38.9265 108.221 39.0801 108.118 39.2754C108.017 39.4689 107.946 39.6891 107.905 39.9359C107.866 40.1863 107.866 40.4055 107.905 40.5938C107.946 40.7802 108.028 40.9258 108.153 41.0305C108.279 41.1335 108.448 41.185 108.661 41.185ZM112.598 42.0826C112.339 42.0826 112.113 42.0364 111.921 41.9441C111.73 41.85 111.588 41.7115 111.498 41.5286C111.409 41.3457 111.387 41.1202 111.431 40.8521C111.47 40.6213 111.545 40.4304 111.655 40.2795C111.767 40.1286 111.904 40.0078 112.065 39.9173C112.229 39.8249 112.406 39.7557 112.598 39.7095C112.791 39.6634 112.989 39.6296 113.189 39.6083C113.434 39.5835 113.632 39.5604 113.783 39.5391C113.936 39.5178 114.05 39.4858 114.127 39.4432C114.203 39.3988 114.249 39.3313 114.265 39.2408V39.2248C114.297 39.0241 114.265 38.8688 114.169 38.7587C114.073 38.6486 113.914 38.5936 113.69 38.5936C113.455 38.5936 113.258 38.6451 113.099 38.748C112.939 38.851 112.822 38.9727 112.75 39.1129L111.876 38.9851C111.986 38.7365 112.137 38.5288 112.329 38.3619C112.521 38.1932 112.742 38.0671 112.992 37.9837C113.244 37.8984 113.513 37.8558 113.799 37.8558C113.994 37.8558 114.185 37.8789 114.372 37.9251C114.56 37.9712 114.726 38.0476 114.87 38.1541C115.015 38.2589 115.122 38.4018 115.189 38.5829C115.259 38.764 115.27 38.9904 115.224 39.2621L114.769 42H113.842L113.938 41.438H113.906C113.829 41.5517 113.73 41.6582 113.607 41.7576C113.485 41.8553 113.339 41.9343 113.17 41.9947C113.002 42.0533 112.811 42.0826 112.598 42.0826ZM112.963 41.3741C113.156 41.3741 113.33 41.3359 113.485 41.2596C113.639 41.1815 113.766 41.0785 113.866 40.9506C113.965 40.8228 114.027 40.6834 114.052 40.5325L114.132 40.0504C114.096 40.0753 114.041 40.0984 113.967 40.1197C113.892 40.141 113.809 40.1596 113.716 40.1756C113.626 40.1916 113.536 40.2058 113.447 40.2182C113.359 40.2306 113.282 40.2413 113.218 40.2502C113.071 40.2697 112.936 40.3017 112.814 40.3461C112.693 40.3904 112.593 40.4526 112.513 40.5325C112.435 40.6106 112.386 40.7118 112.366 40.8361C112.338 41.0119 112.379 41.146 112.491 41.2383C112.603 41.3288 112.76 41.3741 112.963 41.3741ZM117.102 39.603L116.707 42H115.741L116.646 36.5455H117.592L117.251 38.6042H117.301C117.431 38.3716 117.608 38.1887 117.831 38.0556C118.057 37.9224 118.328 37.8558 118.644 37.8558C118.924 37.8558 119.16 37.9153 119.352 38.0343C119.544 38.1532 119.679 38.3272 119.757 38.5563C119.837 38.7853 119.85 39.065 119.797 39.3952L119.36 42H118.393L118.803 39.5444C118.848 39.2692 118.811 39.0552 118.694 38.9025C118.579 38.748 118.396 38.6708 118.146 38.6708C117.973 38.6708 117.814 38.7081 117.669 38.7827C117.523 38.8555 117.401 38.9611 117.301 39.0996C117.204 39.2381 117.137 39.4059 117.102 39.603Z" fill="black"/>
</svg>
