<svg width="190" height="155" viewBox="0 0 190 155" fill="none" xmlns="http://www.w3.org/2000/svg">
<path d="M133.704 11.2439C122.884 4.13568 109.935 0 96.023 0C71.2354 0 49.5123 13.1235 37.4243 32.8011C30.9961 43.2556 27.2925 55.5623 27.2925 68.7305C27.2925 106.69 58.0635 137.461 96.023 137.461C133.982 137.461 164.754 106.69 164.754 68.7305C164.754 44.6867 152.407 23.5224 133.704 11.2439Z" fill="#F5F5F5"/>
<path d="M134.66 129.788C137.84 128.89 146.156 120.707 146.628 117.707C146.676 117.389 146.391 116.771 145.831 115.914C144.749 114.253 142.648 111.704 140.026 108.783C131.266 99.0313 116.701 85.1064 114.968 86.0453C113.223 86.9902 109.043 90.7388 106.33 93.8472C105.129 95.2256 104.216 96.4795 103.938 97.3087C103.485 98.6461 110.32 106.933 117.684 114.806C125.102 122.736 133.058 130.239 134.66 129.788Z" fill="#404040"/>
<mask id="mask0_195_5149" style="mask-type:luminance" maskUnits="userSpaceOnUse" x="0" y="36" width="147" height="68">
<path d="M0 78.426L138.585 36.2474L146.3 61.5983L7.7156 103.777L0 78.426Z" fill="white"/>
</mask>
<g mask="url(#mask0_195_5149)">
<path d="M139.328 40.374C138.658 38.1712 136.323 36.9368 134.104 37.6119L13.1993 74.4097C6.14196 76.5576 2.15144 83.9707 4.28261 90.973C6.41377 97.9753 13.8576 101.908 20.9149 99.7605L31.4975 96.5397L141.82 62.9628C144.038 62.2876 145.29 59.9615 144.62 57.7587L139.328 40.374Z" fill="#E9E9E9"/>
</g>
<path d="M22.5138 90.2478L19.7683 88.4794C20.2778 87.4515 20.4137 86.2392 20.0554 85.0619C19.3033 82.5906 16.662 81.204 14.1797 81.9595C11.6974 82.715 10.2813 85.3461 11.0307 87.8085C11.7809 90.2732 14.4226 91.6692 16.9049 90.9137C17.739 90.6599 18.4463 90.1874 19.0003 89.598L21.7775 91.376C21.9514 91.4889 22.1627 91.504 22.3454 91.4484C22.4906 91.4042 22.6279 91.3023 22.7144 91.1678C22.9163 90.8514 22.8283 90.4358 22.5199 90.2363L22.5138 90.2478ZM12.3269 87.414C11.7911 85.6536 12.7949 83.7852 14.5708 83.2447C16.3467 82.7042 18.2234 83.6959 18.7592 85.4563C19.2957 87.219 18.2897 89.0881 16.5138 89.6286C14.7379 90.1691 12.8634 89.1767 12.3269 87.414Z" fill="white"/>
<mask id="mask1_195_5149" style="mask-type:luminance" maskUnits="userSpaceOnUse" x="140" y="23" width="50" height="38">
<path d="M140.838 35.5508L181.963 23.0344L189.679 48.3852L148.554 60.9017L140.838 35.5508Z" fill="white"/>
</mask>
<g mask="url(#mask1_195_5149)">
<path d="M185.48 35.8171C187.611 42.8194 183.615 50.244 176.557 52.3919L153.11 59.5282C150.892 60.2033 148.554 58.9695 147.884 56.7667L142.59 39.3732C141.92 37.1704 143.174 34.8436 145.392 34.1685L168.839 27.0322C175.897 24.8843 183.352 28.8236 185.48 35.8171Z" fill="#FA8E3C"/>
</g>
<path d="M125.726 38.8294C125.781 38.8128 125.836 38.7915 125.888 38.7651C126.415 38.5051 126.633 37.8676 126.373 37.3404C126.001 36.5855 125.504 35.7138 124.936 34.8193C124.622 34.324 123.964 34.1751 123.468 34.4915C122.972 34.8061 122.825 35.4635 123.14 35.9602C123.667 36.7905 124.124 37.5931 124.463 38.2814C124.696 38.7555 125.236 38.9787 125.726 38.8294Z" fill="#FA8E3C"/>
<path d="M119.089 29.7531C119.245 29.7057 119.391 29.6229 119.515 29.5025C119.939 29.0947 119.954 28.4213 119.546 27.9973C114.41 22.6532 105.718 16.2109 93.4805 15.8639C92.8934 15.8466 92.4035 16.3096 92.3866 16.8981C92.3693 17.4852 92.8323 17.9752 93.4208 17.992C104.938 18.3178 113.15 24.4147 118.012 29.4731C118.299 29.7717 118.718 29.8661 119.089 29.7531Z" fill="#FA8E3C"/>
<path d="M158.437 49.1502C157.773 49.3494 157.122 49.4271 156.485 49.3831C155.853 49.3283 155.266 49.1652 154.723 48.8938C154.186 48.6115 153.719 48.2314 153.322 47.7532C152.925 47.2751 152.63 46.7123 152.435 46.0648C152.241 45.4173 152.178 44.7848 152.246 44.1672C152.314 43.5496 152.5 42.978 152.804 42.4525C153.105 41.9188 153.506 41.4593 154.005 41.0741C154.503 40.6806 155.087 40.383 155.76 40.1813C156.474 39.9671 157.163 39.8961 157.827 39.9683C158.488 40.0322 159.095 40.2438 159.646 40.6033L158.895 41.9008C158.478 41.655 158.049 41.5077 157.609 41.4588C157.167 41.4015 156.717 41.4413 156.26 41.5783C155.804 41.7153 155.407 41.9158 155.07 42.1798C154.741 42.4413 154.477 42.7513 154.277 43.11C154.085 43.4661 153.966 43.8546 153.921 44.2754C153.883 44.6938 153.932 45.1271 154.067 45.5754C154.201 46.0237 154.399 46.4121 154.661 46.7409C154.93 47.0671 155.243 47.3261 155.599 47.5178C155.964 47.7071 156.355 47.8204 156.774 47.8577C157.2 47.8926 157.642 47.8415 158.098 47.7045C158.555 47.5675 158.954 47.3575 159.294 47.0744C159.632 46.7831 159.906 46.4157 160.117 45.9724L161.462 46.6548C161.197 47.25 160.807 47.7605 160.293 48.1864C159.778 48.6122 159.159 48.9335 158.437 49.1502ZM167.299 46.3557L166.895 45.0109L166.722 44.7507L166.016 42.3973C165.879 41.9408 165.636 41.6291 165.288 41.4622C164.937 41.2871 164.483 41.2829 163.927 41.4498C163.553 41.5619 163.201 41.7308 162.871 41.9566C162.549 42.1799 162.294 42.4327 162.108 42.715L161.157 41.7649C161.432 41.3839 161.795 41.0535 162.244 40.7737C162.7 40.4832 163.194 40.2582 163.725 40.0988C164.688 39.8099 165.501 39.8194 166.163 40.1274C166.831 40.4245 167.31 41.0546 167.599 42.0175L168.768 45.9149L167.299 46.3557ZM165.233 47.0705C164.735 47.2199 164.274 47.2677 163.851 47.2137C163.425 47.1515 163.064 47.0021 162.766 46.7655C162.475 46.5181 162.272 46.2035 162.157 45.8217C162.045 45.4481 162.032 45.0858 162.116 44.7346C162.209 44.381 162.433 44.056 162.787 43.7596C163.142 43.4633 163.655 43.2142 164.328 43.0125L166.258 42.4334L166.568 43.4669L164.75 44.0123C164.219 44.1717 163.888 44.366 163.757 44.5951C163.625 44.8159 163.596 45.0509 163.67 45.2999C163.755 45.5821 163.934 45.7726 164.208 45.8714C164.482 45.9702 164.818 45.9598 165.217 45.8403C165.599 45.7257 165.913 45.5364 166.159 45.2724C166.414 45.006 166.557 44.6826 166.588 44.3024L167.129 45.1578C167.097 45.5928 166.918 45.9768 166.593 46.3096C166.276 46.64 165.822 46.8937 165.233 47.0705ZM170.766 45.3155L168.771 38.6664L170.252 38.2218L170.802 40.0522L170.467 39.5691C170.531 39.061 170.741 38.6273 171.094 38.2678C171.456 37.9059 171.957 37.629 172.596 37.4373L173.04 38.919C172.969 38.9223 172.904 38.9327 172.846 38.9502C172.786 38.9593 172.726 38.9726 172.668 38.99C172.079 39.1668 171.662 39.4819 171.418 39.9351C171.171 40.3801 171.15 40.9429 171.354 41.6236L172.322 44.8486L170.766 45.3155ZM175.934 43.765L173.939 37.1158L175.495 36.6488L177.49 43.298L175.934 43.765ZM174.394 35.7847C174.104 35.8719 173.836 35.8528 173.59 35.7275C173.352 35.5996 173.195 35.4071 173.118 35.1497C173.038 34.8841 173.064 34.6367 173.194 34.4076C173.33 34.1677 173.543 34.0042 173.834 33.917C174.124 33.8298 174.387 33.846 174.622 33.9655C174.863 34.0743 175.022 34.2573 175.099 34.5146C175.181 34.7886 175.16 35.0484 175.034 35.2941C174.906 35.5315 174.693 35.6951 174.394 35.7847Z" fill="white"/>
<rect x="44.9165" y="31" width="75" height="69" rx="34.5" fill="#FFF7F2"/>
<path d="M97.6978 57.5315C97.6978 60.4534 95.3071 62.844 92.3853 62.844C89.4634 62.844 87.0728 60.4534 87.0728 57.5315C87.0728 54.6096 89.4634 52.219 92.3853 52.219C95.3071 52.219 97.6978 54.6096 97.6978 57.5315ZM76.4478 62.844C79.3696 62.844 81.7603 60.4534 81.7603 57.5315C81.7603 54.6096 79.3696 52.219 76.4478 52.219C73.5259 52.219 71.1353 54.6096 71.1353 57.5315C71.1353 60.4534 73.5259 62.844 76.4478 62.844ZM84.4165 65.5002C78.3337 65.5002 73.0478 69.5909 71.5603 75.4612C71.1884 76.8956 72.0649 78.3299 73.4728 78.7018C74.8806 79.0471 76.3415 78.1971 76.7134 76.7893C77.6165 73.2565 80.7774 70.8127 84.4165 70.8127C88.0556 70.8127 91.2165 73.2565 92.1196 76.7893C92.3236 77.4413 92.7702 77.99 93.3671 78.3221C93.9641 78.6541 94.6658 78.7443 95.3273 78.5738C95.9887 78.4033 96.5595 77.9852 96.9215 77.406C97.2836 76.8267 97.4093 76.1305 97.2728 75.4612C96.5455 72.6061 94.8857 70.0755 92.5567 68.271C90.2277 66.4665 87.3628 65.4913 84.4165 65.5002ZM123.49 90.1768C123.968 90.6815 124.26 91.3456 124.26 92.0627V102.688C124.26 104.149 123.065 105.344 121.604 105.344H110.979C110.262 105.344 109.598 105.052 109.093 104.574L104.418 99.8987C98.3532 103.459 91.4491 105.339 84.4165 105.344C62.4493 105.344 44.5728 87.4674 44.5728 65.5002C44.5728 43.5331 62.4493 25.6565 84.4165 25.6565C106.384 25.6565 124.26 43.5331 124.26 65.5002C124.26 72.8049 122.242 79.6315 118.815 85.5018L123.49 90.1768ZM84.4165 100.031C103.462 100.031 118.948 84.5456 118.948 65.5002C118.948 46.4549 103.462 30.969 84.4165 30.969C65.3712 30.969 49.8853 46.4549 49.8853 65.5002C49.8853 84.5456 65.3712 100.031 84.4165 100.031Z" fill="#FA8E3C"/>
</svg>
